<?xml version="1.0" encoding="UTF-8"?>
<svg id="Calque_2" data-name="Calque 2" xmlns="http://www.w3.org/2000/svg" viewBox="0 0 1920 1080">
  <defs>
    <style>
      .cls-1 {
        fill: aqua;
      }

      .cls-2 {
        fill: #fff;
      }

      .cls-3 {
        fill: blue;
      }

      .cls-4 {
        fill: none;
        stroke: #fff;
        stroke-miterlimit: 10;
        stroke-width: 5px;
      }

      .cls-5 {
        fill: red;
      }

      .cls-6 {
        fill: #f0f;
      }

      .cls-7 {
        fill: lime;
      }

      .cls-8 {
        fill: #ff0;
      }
    </style>
  </defs>
  <g id="Calque_1-2" data-name="Calque 1">
    <g>
      <rect class="cls-8" width="80" height="1080"/>
      <rect class="cls-1" x="80" width="80" height="1080"/>
      <rect class="cls-7" x="160" width="80" height="1080"/>
      <rect x="240" width="1440" height="1080"/>
      <rect class="cls-6" x="1680" width="80" height="1080"/>
      <rect class="cls-5" x="1760" width="80" height="1080"/>
      <rect class="cls-3" x="1840" width="80" height="1080"/>
    </g>
    <g id="Calque_6" data-name="Calque 6">
      <g id="Calque_2-2" data-name="Calque 2">
        <ellipse class="cls-4" cx="960.06" cy="539.66" rx="628.95" ry="178.21"/>
        <path class="cls-4" d="M1526.85,252.69c36.53,79.82-187.56,273.15-500.5,431.82-312.95,158.67-596.24,222.6-632.77,142.8-36.53-79.82,187.56-273.16,500.5-431.83,312.95-158.68,596.24-222.61,632.77-142.79Z"/>
        <path class="cls-4" d="M393.58,252.69c-36.53,79.82,187.56,273.15,500.5,431.82,312.95,158.68,596.24,222.6,632.77,142.8,36.52-79.82-187.56-273.16-500.5-431.83C713.4,236.81,430.1,172.88,393.58,252.69Z"/>
      </g>
    </g>
    <circle class="cls-2" cx="960.22" cy="539.66" r="75"/>
    <path class="cls-2" d="M960.24,448.08c9.72,0,19.05,1.54,27.74,4.34l-27.98-55.86-28.03,56.01h.05c8.82-2.9,18.32-4.49,28.22-4.49Z"/>
    <path class="cls-2" d="M1024.99,474.92c6.88,6.88,12.38,14.56,16.54,22.68l19.71-59.29-59.43,19.79.04.04c8.29,4.19,16.13,9.78,23.13,16.78Z"/>
    <path class="cls-2" d="M1051.79,539.68c0,9.72-1.54,19.05-4.34,27.74l55.86-27.98-56.01-28.03v.05c2.9,8.82,4.49,18.32,4.49,28.22Z"/>
    <path class="cls-2" d="M1024.95,604.42c-6.88,6.88-14.56,12.38-22.68,16.54l59.29,19.71-19.79-59.43-.04.04c-4.19,8.29-9.78,16.13-16.78,23.13Z"/>
    <path class="cls-2" d="M960.19,631.23c-9.72,0-19.05-1.54-27.74-4.34l27.98,55.86,28.03-56.01h-.05c-8.82,2.9-18.32,4.49-28.22,4.49Z"/>
    <path class="cls-2" d="M895.45,604.39c-6.88-6.88-12.38-14.56-16.54-22.68l-19.71,59.29,59.43-19.79-.04-.04c-8.29-4.19-16.13-9.78-23.13-16.78Z"/>
    <path class="cls-2" d="M868.65,539.63c0-9.72,1.54-19.05,4.34-27.74l-55.86,27.98,56.01,28.03v-.05c-2.9-8.82-4.49-18.32-4.49-28.22Z"/>
    <path class="cls-2" d="M895.48,474.89c6.88-6.88,14.56-12.38,22.68-16.54l-59.29-19.71,19.79,59.43.04-.04c4.19-8.29,9.78-16.13,16.78-23.13Z"/>
  </g>
</svg>