<?xml version="1.0" encoding="UTF-8"?>
<svg id="Calque_2" data-name="Calque 2" xmlns="http://www.w3.org/2000/svg" viewBox="0 0 64 64">
  <defs>
    <style>
      .cls-1 {
        fill: aqua;
      }

      .cls-2 {
        fill: #fff;
      }

      .cls-3 {
        fill: blue;
      }

      .cls-4 {
        fill: red;
      }

      .cls-5 {
        fill: #f0f;
      }

      .cls-6 {
        fill: #aaa;
      }

      .cls-7 {
        fill: lime;
      }

      .cls-8 {
        fill: #ff0;
      }
    </style>
  </defs>
  <g id="Calque_1-2" data-name="Calque 1">
    <rect width="64" height="64"/>
    <circle class="cls-2" cx="32" cy="32" r="12.58"/>
    <path class="cls-8" d="M32,16.64c1.63,0,3.2.26,4.65.73l-4.69-9.37-4.7,9.39h0c1.48-.49,3.07-.75,4.73-.75Z"/>
    <path class="cls-1" d="M42.86,21.14c1.15,1.15,2.08,2.44,2.77,3.8l3.31-9.94-9.97,3.32h0c1.39.71,2.71,1.65,3.88,2.82Z"/>
    <path class="cls-7" d="M47.36,32c0,1.63-.26,3.2-.73,4.65l9.37-4.69-9.39-4.7h0c.49,1.49.75,3.08.75,4.74Z"/>
    <path class="cls-5" d="M42.86,42.86c-1.15,1.15-2.44,2.08-3.8,2.77l9.94,3.31-3.32-9.97h0c-.7,1.4-1.64,2.71-2.81,3.89Z"/>
    <path class="cls-4" d="M32,47.36c-1.63,0-3.2-.26-4.65-.73l4.69,9.37,4.7-9.39h0c-1.48.49-3.07.75-4.73.75Z"/>
    <path class="cls-3" d="M21.14,42.86c-1.15-1.15-2.08-2.44-2.77-3.8l-3.31,9.94,9.97-3.32h0c-1.39-.71-2.71-1.65-3.88-2.82Z"/>
    <path class="cls-6" d="M16.64,32c0-1.63.26-3.2.73-4.65l-9.37,4.69,9.39,4.7h0c-.49-1.49-.75-3.08-.75-4.74Z"/>
    <path class="cls-2" d="M21.14,21.14c1.15-1.15,2.44-2.08,3.8-2.77l-9.94-3.31,3.32,9.97h0c.7-1.4,1.64-2.71,2.81-3.89Z"/>
  </g>
</svg>