<?xml version="1.0" encoding="UTF-8"?>
<svg id="Calque_2" data-name="Calque 2" xmlns="http://www.w3.org/2000/svg" viewBox="0 0 350 50">
  <defs>
    <style>
      .cls-1 {
        fill: aqua;
      }

      .cls-2 {
        fill: #19e126;
      }

      .cls-3 {
        fill: #ff5000;
      }
    </style>
  </defs>
  <g id="Calque_1-2" data-name="Calque 1">
    <rect class="cls-1" y="0" width="350" height="50"/>
    <g>
      <rect class="cls-2" y="0" width="50" height="50"/>
      <path d="M20.37,35.5h18.25v7H11.38V7.5h9v28Z"/>
    </g>
    <g>
      <rect class="cls-3" x="50" y="0" width="50" height="50" rx="25" ry="25"/>
      <path d="M88.87,42.5h-27.75V7.5h27.75v7h-18.75v6.75h14.75v7h-14.75v7.25h18.75v7Z"/>
    </g>
    <g>
      <rect class="cls-2" x="100" y="0" width="50" height="50"/>
      <path d="M131.75,7.5h10l-11.25,17.5,11.5,17.5h-10l-7-11-7,11h-10l11.5-17.5-11.25-17.5h9.95l6.8,11,6.75-11Z"/>
    </g>
    <g>
      <rect class="cls-3" x="150" y="0" width="50" height="50" rx="25" ry="25"/>
      <path d="M184,42.5h-18v-7h4.5V14.5h-4.5v-7h18v7h-4.5v21h4.5v7Z"/>
    </g>
    <g>
      <rect class="cls-2" x="200" y="0" width="50" height="50"/>
      <path d="M235.5,23l-7,12.5h-7l-7-12.5v19.5h-9V7.5h9.5l10,18.5,10-18.5h9.5v35h-9v-19.5Z"/>
    </g>
    <g>
      <rect class="cls-3" x="250" y="0" width="50" height="50" rx="25" ry="25"/>
      <path d="M290.8,32.78c0,3.4-.77,5.87-2.31,7.41-1.54,1.54-4.01,2.31-7.41,2.31h-12.15c-3.4,0-5.87-.77-7.41-2.31-1.54-1.54-2.31-4.01-2.31-7.41v-15.56c0-3.4.77-5.87,2.31-7.41,1.54-1.54,4.01-2.31,7.41-2.31h12.15c3.4,0,5.87.77,7.41,2.31,1.54,1.54,2.31,4.01,2.31,7.41v15.56ZM282.05,17.22c0-1.94-.97-2.92-2.92-2.92h-8.26c-1.95,0-2.92.97-2.92,2.92v15.56c0,1.94.97,2.92,2.92,2.92h8.26c1.94,0,2.92-.97,2.92-2.92v-15.56Z"/>
    </g>
    <g>
      <rect class="cls-2" x="300" width="50" height="50"/>
      <path d="M329.5,42.5h-9V14.5h-10.5v-7h30v7h-10.5v28Z"/>
    </g>
  </g>
</svg>