<?xml version="1.0" encoding="UTF-8"?>
<svg id="Calque_2" data-name="Calque 2" xmlns="http://www.w3.org/2000/svg" xmlns:xlink="http://www.w3.org/1999/xlink" viewBox="0 0 1150 1150">
  <defs>
    <style>
      .cls-1 {
        fill: url(#Dégradé_sans_nom_92);
      }

      .cls-2 {
        stroke: #777776;
        stroke-width: 25px;
      }

      .cls-2, .cls-3, .cls-4, .cls-5 {
        fill: none;
        stroke-miterlimit: 10;
      }

      .cls-6 {
        fill: #fff;
      }

      .cls-3 {
        stroke: #fd7e14;
      }

      .cls-3, .cls-5 {
        stroke-linecap: round;
        stroke-width: 3px;
      }

      .cls-4 {
        stroke: #000;
        stroke-width: 150px;
      }

      .cls-7 {
        fill: #1a2918;
      }

      .cls-5 {
        stroke: #5cb85c;
      }

      .cls-8 {
        fill: url(#Dégradé_sans_nom_95);
      }
    </style>
    <radialGradient id="Dégradé_sans_nom_92" data-name="Dégradé sans nom 92" cx="575.6" cy="591" fx="575.6" fy="591" r="462.7" gradientTransform="translate(-47.15 -63.64) scale(1.08)" gradientUnits="userSpaceOnUse">
      <stop offset="0" stop-color="#fff"/>
      <stop offset=".33" stop-color="#0032b3"/>
      <stop offset=".76" stop-color="#00113d"/>
    </radialGradient>
    <radialGradient id="Dégradé_sans_nom_95" data-name="Dégradé sans nom 95" cx="579.97" cy="576.24" fx="579.97" fy="576.24" r="454" gradientTransform="translate(622.62 -237.24) rotate(48.49)" gradientUnits="userSpaceOnUse">
      <stop offset=".44" stop-color="#efe1b3"/>
      <stop offset=".81" stop-color="#d4af37"/>
    </radialGradient>
  </defs>
  <g id="Calque_9" data-name="Calque 9">
    <ellipse class="cls-1" cx="575.6" cy="575" rx="500.6" ry="500"/>
    <g>
      <circle class="cls-4" cx="575" cy="575" r="500"/>
      <g>
        <path class="cls-6" d="M226.76,209.69l22.67-20.74c.56-.51.87-1.02.92-1.54s-.12-1.18-.53-1.99l.86-.79,8.73,9.54-.86.79c-.77-.48-1.42-.72-1.94-.71-.52.01-1.06.27-1.62.78l-32.45,29.69-.79-.86c.48-.77.72-1.42.71-1.94-.01-.52-.27-1.06-.78-1.62l-28.55-31.21c-.51-.56-1.02-.87-1.54-.92-.52-.06-1.18.12-1.99.53l-.79-.86,11.51-10.53.79.87c-.5.75-.74,1.4-.72,1.92s.29,1.07.8,1.63l25.59,27.96Z"/>
        <path class="cls-6" d="M289.73,142.34l7.29,11.6,27.22-17.11c.62-.39,1-.83,1.15-1.33s.09-1.18-.17-2.06l.99-.62,6.88,10.94-.99.62c-.67-.61-1.27-.96-1.78-1.04s-1.08.07-1.7.46l-38.45,24.17-.62-.99c.62-.67.96-1.27,1.04-1.78.08-.51-.08-1.09-.48-1.73l-22.51-35.81c-.4-.64-.85-1.04-1.35-1.18-.5-.15-1.18-.09-2.06.17l-.62-.99,37.7-23.7c.62-.39,1-.83,1.15-1.34.15-.5.09-1.19-.16-2.05l.99-.62,6.88,10.94-.99.62c-.67-.6-1.26-.95-1.78-1.04-.52-.08-1.08.07-1.7.46l-26.48,16.64,6.31,10.04,17.18-10.8c.62-.39,1-.83,1.15-1.33.15-.5.09-1.18-.17-2.06l.99-.62,6.72,10.7-.99.62c-.66-.59-1.25-.94-1.77-1.03-.52-.09-1.09.06-1.71.45l-17.18,10.8Z"/>
        <path class="cls-6" d="M466.57,83.84l4.78,2.89c1.09.67,1.8,1.07,2.15,1.19s.72.13,1.12.02c.33-.09.83-.38,1.51-.89l.97.65-7.86,12.17-1-.64c.26-.9.35-1.54.25-1.92-.11-.42-1.04-1.25-2.78-2.49l-5.52-3.99c-3.12,2.34-7.18,4.17-12.19,5.5-8.24,2.18-15.43,1.65-21.57-1.6-3.29-1.73-6.07-4.12-8.34-7.15-2-2.68-3.43-5.67-4.31-8.97-1.28-4.84-1.2-9.58.25-14.23,2.79-9.12,9.77-15.16,20.94-18.12,8.38-2.22,15.63-1.7,21.75,1.56,3.29,1.73,6.06,4.1,8.33,7.12,2,2.68,3.43,5.67,4.31,8.97,1.88,7.1.95,13.75-2.8,19.95ZM457.74,78.65c1.68-3.77,1.97-7.75.87-11.92-1.38-5.21-4.31-8.95-8.81-11.22-3.77-1.93-7.98-2.28-12.64-1.05-4.68,1.24-8.18,3.63-10.5,7.17-2.78,4.22-3.48,8.93-2.1,14.14,1.38,5.23,4.32,8.99,8.82,11.25,3.79,1.92,8.03,2.26,12.71,1.03,2.22-.59,4.29-1.54,6.22-2.86-.35-.26-.65-.49-.9-.67-3.36-2.55-6.85-3.77-10.47-3.67l-.26-.99c1.35-1.77,3.12-2.95,5.29-3.52,1.56-.41,3.22-.45,4.97-.1,1.75.35,4.02,1.15,6.8,2.41Z"/>
        <path class="cls-6" d="M566.12,32.23l1.76,27.96c.33,5.29-.39,9.31-2.17,12.06-3.21,4.95-10.31,7.77-21.3,8.46-7.94.5-14.1-.4-18.48-2.69-2.55-1.33-4.39-3.25-5.5-5.75-1.09-2.48-1.74-5.47-1.96-8.98l-1.76-27.96c-.05-.75-.25-1.32-.62-1.69-.37-.37-.99-.65-1.89-.83l-.07-1.17,15.57-.98.07,1.17c-.85.27-1.44.62-1.76,1.05-.32.42-.46,1.01-.41,1.77l1.57,24.89c.18,2.88.47,4.99.88,6.35s1.07,2.47,2.01,3.34c2.5,2.34,6.57,3.33,12.22,2.97,5.68-.36,9.61-1.85,11.79-4.49.79-.98,1.31-2.17,1.54-3.56.23-1.4.25-3.53.07-6.41l-1.57-24.89c-.05-.75-.25-1.32-.62-1.69-.37-.37-1-.65-1.89-.83l-.07-1.17,14.69-.92.07,1.17c-.86.3-1.45.65-1.77,1.07-.32.41-.45,1-.4,1.75Z"/>
        <path class="cls-6" d="M617.58,76.63l3.88-42.16c.07-.73-.05-1.3-.36-1.72-.3-.42-.88-.79-1.74-1.12l.11-1.17,15.54,1.43-.11,1.17c-.9.14-1.53.39-1.91.76-.38.37-.6.92-.67,1.65l-3.88,42.16c-.07.75.05,1.35.37,1.78s.89.8,1.72,1.1l-.11,1.17-15.54-1.43.11-1.17c.9-.16,1.53-.42,1.91-.78.38-.36.6-.91.67-1.67Z"/>
        <path class="cls-6" d="M692.28,83.87l25.26,6.22c.71.17,1.3.14,1.76-.1.46-.24.92-.75,1.36-1.55l1.14.28-3.09,12.55-1.14-.28c-.03-.91-.19-1.58-.49-2.01-.3-.43-.8-.73-1.51-.9l-42.46-10.46.61-2.49,37.6-31.1-24.28-5.98c-.74-.18-1.33-.16-1.79.08-.46.23-.91.75-1.36,1.56l-1.14-.28,3.09-12.55,1.14.28c.05.93.21,1.6.5,2.02.29.42.8.72,1.53.9l41.82,10.3-.5,2.03-38.05,31.47Z"/>
        <path class="cls-6" d="M813.61,133.63l21.73-36.29c.39-.65.54-1.23.44-1.74s-.45-1.1-1.08-1.76l.6-1.01,23.92,14.33c5.24,3.14,8.91,6.14,11,9.02,2.98,4.15,4.24,8.8,3.77,13.96-.35,4.06-1.79,8.19-4.31,12.4-4.43,7.39-10.08,11.67-16.94,12.82-2.89.49-5.82.32-8.79-.51-2.98-.83-6.45-2.43-10.41-4.8l-23.92-14.33.6-1.01c.88.24,1.57.28,2.06.12s.94-.56,1.32-1.21ZM825.23,135.47l11.76,7.04c3.75,2.25,6.88,3.42,9.38,3.53,5.36.22,9.95-2.85,13.77-9.21,2.76-4.61,3.78-8.79,3.07-12.55-.4-2.09-1.29-3.94-2.66-5.54-1.38-1.61-3.49-3.26-6.34-4.97l-11.76-7.05-17.22,28.75Z"/>
        <path class="cls-6" d="M959.98,189.47l-18.75,20.82c-3.54,3.94-6.93,6.23-10.14,6.88-5.78,1.17-12.76-1.93-20.95-9.3-5.91-5.33-9.58-10.35-11.01-15.09-.84-2.76-.75-5.41.26-7.95,1.01-2.51,2.69-5.07,5.04-7.68l18.75-20.82c.51-.56.76-1.1.77-1.62,0-.52-.23-1.16-.72-1.93l.78-.87,11.59,10.44-.78.87c-.79-.42-1.45-.59-1.98-.53-.53.07-1.05.38-1.55.94l-16.69,18.53c-1.93,2.14-3.24,3.83-3.92,5.07s-1.01,2.5-.98,3.77c.08,3.42,2.22,7.02,6.43,10.81,4.23,3.81,8.04,5.57,11.45,5.29,1.25-.12,2.46-.58,3.62-1.4,1.16-.81,2.7-2.29,4.63-4.43l16.69-18.53c.51-.56.76-1.1.77-1.62,0-.52-.23-1.16-.72-1.93l.78-.87,10.94,9.85-.78.87c-.82-.41-1.48-.58-2-.52-.52.06-1.03.37-1.53.94Z"/>
      </g>
      <g>
        <path class="cls-6" d="M213.56,956.01l21.16,22.28c.52.55,1.04.85,1.56.9.52.05,1.18-.14,1.98-.57l.81.85-9.37,8.9-.81-.85c.47-.78.69-1.43.67-1.95-.02-.52-.29-1.05-.81-1.6l-30.29-31.89.85-.81c.78.47,1.43.69,1.95.67.52-.02,1.05-.29,1.6-.81l30.67-29.13c.55-.52.85-1.04.89-1.56s-.14-1.18-.57-1.98l.85-.81,10.74,11.31-.85.81c-.76-.49-1.41-.71-1.94-.68-.53.03-1.07.3-1.61.83l-27.48,26.1Z"/>
        <path class="cls-6" d="M292.14,1008.45l-7.9,11.19,26.27,18.54c.6.42,1.16.61,1.67.55.52-.05,1.13-.37,1.83-.95l.96.67-7.45,10.56-.96-.68c.31-.86.4-1.54.28-2.04s-.48-.97-1.08-1.39l-37.1-26.18.68-.96c.86.31,1.54.4,2.04.28.5-.12.97-.49,1.41-1.11l24.39-34.56c.44-.62.63-1.19.57-1.7-.05-.52-.37-1.13-.95-1.83l.68-.96,36.38,25.67c.6.42,1.16.6,1.68.54.52-.06,1.13-.37,1.83-.94l.96.68-7.45,10.56-.96-.68c.3-.85.39-1.53.27-2.04-.12-.51-.48-.97-1.08-1.4l-25.55-18.03-6.84,9.69,16.58,11.7c.6.42,1.16.61,1.67.55.52-.05,1.13-.37,1.83-.95l.96.68-7.28,10.32-.96-.68c.29-.84.38-1.52.27-2.03-.12-.51-.47-.98-1.07-1.4l-16.58-11.7Z"/>
        <path class="cls-6" d="M457.99,1103.52l2.61,4.94c.58,1.13,1,1.84,1.23,2.13s.55.48.95.6c.33.1.91.1,1.75.02l.49,1.06-13.01,6.37-.53-1.07c.69-.64,1.09-1.14,1.2-1.52.12-.42-.24-1.61-1.1-3.56l-2.67-6.27c-3.88.39-8.31-.13-13.28-1.58-8.19-2.38-14.07-6.55-17.65-12.5-1.92-3.18-3.07-6.66-3.45-10.43-.33-3.33-.01-6.63.94-9.91,1.4-4.8,3.92-8.83,7.56-12.06,7.1-6.37,16.2-7.94,27.29-4.71,8.33,2.43,14.27,6.61,17.83,12.56,1.92,3.18,3.08,6.64,3.46,10.39.33,3.33.01,6.63-.94,9.91-2.06,7.06-6.29,12.27-12.69,15.64ZM453.11,1094.51c3.39-2.37,5.69-5.62,6.89-9.77,1.51-5.17.92-9.89-1.76-14.15-2.24-3.6-5.67-6.07-10.29-7.42-4.65-1.35-8.88-1.11-12.7.72-4.55,2.18-7.59,5.86-9.09,11.03-1.51,5.2-.93,9.93,1.75,14.19,2.26,3.6,5.71,6.08,10.36,7.44,2.21.64,4.47.9,6.8.76-.16-.4-.3-.75-.42-1.04-1.56-3.91-3.92-6.76-7.07-8.55l.29-.98c2.07-.82,4.19-.92,6.35-.29,1.55.45,2.98,1.28,4.3,2.48s2.85,3.06,4.59,5.58Z"/>
        <path class="cls-6" d="M569.13,1078.22l-1.93,27.95c-.37,5.29-1.61,9.18-3.74,11.67-3.83,4.48-11.24,6.34-22.23,5.58-7.94-.55-13.93-2.25-17.97-5.1-2.36-1.66-3.92-3.79-4.7-6.42-.75-2.6-1-5.65-.76-9.16l1.93-27.95c.05-.75-.08-1.34-.39-1.75-.31-.41-.9-.77-1.76-1.08l.08-1.17,15.56,1.08-.08,1.17c-.88.16-1.51.43-1.88.81-.38.38-.59.94-.64,1.7l-1.72,24.88c-.2,2.87-.19,5.01.03,6.41.22,1.4.74,2.59,1.55,3.58,2.17,2.65,6.07,4.16,11.73,4.55,5.67.39,9.77-.57,12.28-2.9.92-.87,1.58-1.98,1.99-3.33s.72-3.47.92-6.34l1.72-24.88c.05-.75-.08-1.34-.39-1.75-.31-.41-.9-.77-1.76-1.08l.08-1.17,14.69,1.01-.08,1.17c-.89.18-1.52.46-1.89.82-.37.37-.58.93-.63,1.68Z"/>
        <path class="cls-6" d="M620.89,1117.95l-4.22-42.12c-.07-.73-.3-1.27-.68-1.62-.38-.35-1.02-.61-1.92-.76l-.12-1.17,15.52-1.56.12,1.17c-.85.31-1.43.68-1.73,1.11-.3.43-.41,1.02-.34,1.75l4.22,42.12c.08.75.31,1.31.7,1.68.39.37,1.02.62,1.9.75l.12,1.17-15.52,1.56-.12-1.17c.85-.33,1.42-.71,1.73-1.13.3-.42.41-1.01.34-1.76Z"/>
        <path class="cls-6" d="M699.05,1100.08l25.11-6.79c.71-.19,1.21-.5,1.49-.93.29-.43.44-1.1.44-2.02l1.13-.31,3.38,12.48-1.13.31c-.46-.79-.93-1.29-1.4-1.52-.47-.23-1.05-.25-1.76-.05l-42.21,11.41-.67-2.47,17.83-45.41-24.14,6.53c-.73.2-1.24.51-1.53.93s-.44,1.1-.44,2.03l-1.13.31-3.37-12.48,1.13-.31c.49.79.96,1.3,1.42,1.52.45.23,1.04.24,1.78.04l41.57-11.24.54,2.01-18.05,45.97Z"/>
        <path class="cls-6" d="M831.55,1049.95l-23.54-35.14c-.42-.63-.88-1.01-1.38-1.14-.5-.13-1.19-.06-2.05.23l-.65-.97,23.17-15.52c5.08-3.4,9.36-5.43,12.85-6.1,5.02-.93,9.77-.08,14.23,2.54,3.52,2.05,6.65,5.11,9.38,9.19,4.8,7.16,6.25,14.09,4.36,20.79-.79,2.82-2.19,5.4-4.21,7.74-2.02,2.34-4.95,4.79-8.79,7.36l-23.17,15.52-.65-.97c.59-.69.92-1.29.99-1.81.07-.51-.11-1.09-.53-1.71ZM838.17,1040.23l11.39-7.63c3.63-2.43,6.03-4.76,7.2-6.98,2.49-4.75,1.67-10.22-2.46-16.38-2.99-4.46-6.33-7.17-10.04-8.13-2.06-.53-4.11-.51-6.15.04-2.04.56-4.44,1.76-7.2,3.61l-11.39,7.63,18.65,27.84Z"/>
        <path class="cls-6" d="M919.6,921.55l20.13,19.48c3.81,3.68,5.98,7.15,6.52,10.38.96,5.82-2.39,12.69-10.05,20.6-5.54,5.72-10.69,9.21-15.47,10.46-2.79.74-5.43.55-7.93-.54-2.47-1.1-4.97-2.87-7.49-5.32l-20.13-19.48c-.54-.53-1.08-.8-1.59-.83-.52-.03-1.17.19-1.96.65l-.84-.81,10.85-11.21.84.81c-.44.78-.64,1.43-.6,1.96.05.53.34,1.06.89,1.58l17.92,17.34c2.07,2,3.71,3.37,4.92,4.1,1.21.73,2.46,1.1,3.73,1.12,3.42.05,7.1-1.96,11.04-6.03,3.96-4.09,5.85-7.84,5.7-11.25-.07-1.26-.49-2.48-1.26-3.67-.77-1.19-2.19-2.78-4.26-4.79l-17.92-17.34c-.54-.53-1.08-.8-1.59-.83-.52-.03-1.17.19-1.96.65l-.84-.81,10.24-10.58.84.82c-.44.8-.63,1.46-.59,1.98.04.52.34,1.04.88,1.57Z"/>
      </g>
    </g>
    <circle class="cls-2" cx="572.75" cy="575" r="427.25"/>
    <g class="rayons">
      <ellipse class="cls-3" cx="577.27" cy="576.02" rx="466.1" ry="41.06" transform="translate(-90.23 1044.5) rotate(-80)"/>
      <ellipse class="cls-3" cx="577.27" cy="576.02" rx="466.1" ry="41.06" transform="translate(-210.21 787.94) rotate(-60)"/>
      <ellipse class="cls-3" cx="577.27" cy="576.02" rx="466.1" ry="41.06" transform="translate(-235.2 505.83) rotate(-40)"/>
      <ellipse class="cls-3" cx="577.27" cy="576.02" rx="466.1" ry="41.06" transform="translate(-162.2 232.18) rotate(-20)"/>
      <ellipse class="cls-3" cx="577.27" cy="576.02" rx="466.1" ry="41.06"/>
      <ellipse class="cls-3" cx="577.27" cy="576.02" rx="41.06" ry="466.1" transform="translate(-161.44 921.47) rotate(-70)"/>
      <ellipse class="cls-3" cx="577.27" cy="576.02" rx="41.06" ry="466.1" transform="translate(-235.04 647.98) rotate(-50)"/>
      <ellipse class="cls-3" cx="577.27" cy="576.02" rx="41.06" ry="466.1" transform="translate(-210.67 365.81) rotate(-30)"/>
      <ellipse class="cls-3" cx="577.27" cy="576.02" rx="41.06" ry="466.1" transform="translate(-91.25 108.99) rotate(-10)"/>
      <ellipse class="cls-5" cx="577.27" cy="576.02" rx="41.06" ry="466.1"/>
      <ellipse class="cls-5" cx="577.27" cy="576.02" rx="466.1" ry="41.06" transform="translate(-161.44 921.47) rotate(-70)"/>
      <ellipse class="cls-5" cx="577.27" cy="576.02" rx="466.1" ry="41.06" transform="translate(-235.04 647.98) rotate(-50)"/>
      <ellipse class="cls-5" cx="577.27" cy="576.02" rx="466.1" ry="41.06" transform="translate(-210.67 365.81) rotate(-30)"/>
      <ellipse class="cls-5" cx="577.27" cy="576.02" rx="466.1" ry="41.06" transform="translate(-91.25 108.99) rotate(-10)"/>
      <ellipse class="cls-5" cx="577.27" cy="576.02" rx="41.06" ry="466.1" transform="translate(-90.23 1044.5) rotate(-80)"/>
      <ellipse class="cls-5" cx="577.27" cy="576.02" rx="41.06" ry="466.1" transform="translate(-210.21 787.94) rotate(-60)"/>
      <ellipse class="cls-5" cx="577.27" cy="576.02" rx="41.06" ry="466.1" transform="translate(-235.2 505.83) rotate(-40)"/>
      <ellipse class="cls-5" cx="577.27" cy="576.02" rx="41.06" ry="466.1" transform="translate(-162.2 232.18) rotate(-20)"/>
    </g>
    <g class="symbol">
      <g>
        <path class="cls-7" d="M713.67,263.33l1.2-13.8c.62-7.78,1.1-11.94,1.46-12.47,3.56-5.3,16.73-11.18,39.53-17.65,48.19-13.76,83.85-12.87,106.99,2.67,13.95,9.37,22.66,22.91,26.15,40.62,3.36,17.12.48,32.48-8.65,46.08-12.69,18.9-32.81,34.34-60.34,46.34-10.87,4.74-34.41,10.97-70.6,18.7-67.2,14.58-118.39,34.14-153.57,58.68-7.57,5.17-12.86,6.74-15.86,4.73-3-2.02-3.5-4.52-1.48-7.53.71-1.06,1.81-2.11,3.28-3.17,2.31-1.53,6.68-4.99,13.13-10.4,21.47-17.86,42.59-32.51,63.34-43.94,20.27-11.5,41.51-20.8,63.73-27.93,19.01-6.19,40.87-12.4,65.55-18.63,20.9-5.18,38.95-10.49,54.13-15.92,14.76-5.2,25.35-12.57,31.76-22.1,3.91-5.83,5.21-12.9,3.88-21.23-1.5-9.98-5.87-17.4-13.11-22.26-14.48-9.73-37.84-10.04-70.09-.95-15.54,4.43-38.7,13.73-69.48,27.91-4.79,2.16-7.97,2.72-9.56,1.65-1.42-.95-1.88-4.08-1.39-9.39Z"/>
        <path class="cls-7" d="M257.91,442.55l-13.8-1.2c-7.78-.62-11.94-1.1-12.47-1.46-5.3-3.56-11.18-16.73-17.65-39.53-13.76-48.19-12.87-83.85,2.67-106.99,9.37-13.95,22.91-22.66,40.62-26.15,17.12-3.36,32.48-.48,46.08,8.65,18.9,12.69,34.34,32.81,46.34,60.34,4.74,10.87,10.97,34.41,18.7,70.6,14.58,67.2,34.14,118.39,58.68,153.57,5.17,7.57,6.74,12.86,4.73,15.86-2.02,3-4.52,3.5-7.53,1.48-1.06-.71-2.11-1.81-3.17-3.28-1.53-2.31-4.99-6.68-10.4-13.13-17.86-21.47-32.51-42.59-43.94-63.34-11.5-20.27-20.8-41.51-27.93-63.73-6.19-19.01-12.4-40.87-18.63-65.55-5.18-20.9-10.49-38.95-15.92-54.13-5.2-14.76-12.57-25.35-22.1-31.76-5.83-3.91-12.9-5.21-21.23-3.88-9.98,1.5-17.4,5.87-22.26,13.11-9.73,14.48-10.04,37.84-.95,70.09,4.43,15.54,13.73,38.7,27.91,69.48,2.16,4.79,2.72,7.97,1.65,9.56-.95,1.42-4.08,1.88-9.39,1.39Z"/>
        <path class="cls-7" d="M437.13,898.31l-1.2,13.8c-.62,7.78-1.1,11.94-1.46,12.47-3.56,5.3-16.73,11.18-39.53,17.65-48.19,13.76-83.85,12.87-106.99-2.67-13.95-9.37-22.66-22.91-26.15-40.62-3.36-17.12-.48-32.48,8.65-46.08,12.69-18.9,32.81-34.34,60.34-46.34,10.87-4.74,34.41-10.97,70.6-18.7,67.2-14.58,118.39-34.14,153.57-58.68,7.57-5.17,12.86-6.74,15.86-4.73,3,2.02,3.5,4.52,1.48,7.53-.71,1.06-1.81,2.11-3.28,3.17-2.31,1.53-6.68,4.99-13.13,10.4-21.47,17.86-42.59,32.51-63.34,43.94-20.27,11.5-41.51,20.8-63.73,27.93-19.01,6.19-40.87,12.4-65.55,18.63-20.9,5.18-38.95,10.49-54.13,15.92-14.76,5.2-25.35,12.57-31.76,22.1-3.91,5.83-5.21,12.9-3.88,21.23,1.5,9.98,5.87,17.4,13.11,22.26,14.48,9.73,37.84,10.04,70.09.95,15.54-4.43,38.7-13.73,69.48-27.91,4.79-2.16,7.97-2.72,9.56-1.65,1.42.95,1.88,4.08,1.39,9.39Z"/>
        <path class="cls-7" d="M892.89,719.09l13.8,1.2c7.78.62,11.94,1.1,12.47,1.46,5.3,3.56,11.18,16.73,17.65,39.53,13.76,48.19,12.87,83.85-2.67,106.99-9.37,13.95-22.91,22.66-40.62,26.15-17.12,3.36-32.48.48-46.08-8.65-18.9-12.69-34.34-32.81-46.34-60.34-4.74-10.87-10.97-34.41-18.7-70.6-14.58-67.2-34.14-118.39-58.68-153.57-5.17-7.57-6.74-12.86-4.73-15.86,2.02-3,4.52-3.5,7.53-1.48,1.06.71,2.11,1.81,3.17,3.28,1.53,2.31,4.99,6.68,10.4,13.13,17.86,21.47,32.51,42.59,43.94,63.34,11.5,20.27,20.8,41.51,27.93,63.73,6.19,19.01,12.4,40.87,18.63,65.55,5.18,20.9,10.49,38.95,15.92,54.13,5.2,14.76,12.57,25.35,22.1,31.76,5.83,3.91,12.9,5.21,21.23,3.88,9.98-1.5,17.4-5.87,22.26-13.11,9.73-14.48,10.04-37.84.95-70.09-4.43-15.54-13.73-38.7-27.91-69.48-2.16-4.79-2.72-7.97-1.65-9.56.95-1.42,4.08-1.88,9.39-1.39Z"/>
        <path class="cls-7" d="M740.66,699.47c-5-8.14-12.28-12.21-21.85-12.21-8.86,0-18.56,3.64-29.13,10.93-14.71,10.14-28.63,25.42-41.77,45.84-15.92,24.9-32.18,64.18-48.77,117.8h-50.11c-5.51.18-9.38,1.34-11.64,3.48l-7.51,7.51c-1.5,1.43-2.25,2.68-2.25,3.75,0,1.43,2.63,2.15,7.88,2.15h58.54c-.47,1.59-.94,3.15-1.41,4.77-1.45,5-2.83,9.66-4.13,14.03h-55.34c-5.51.18-9.38,1.34-11.64,3.48l-7.51,7.51c-1.5,1.43-2.25,2.68-2.25,3.75,0,1.43,2.63,2.15,7.88,2.15h63.67c-3.66,11.56-6.48,19.55-8.47,23.93-3.71,8.14-8.14,16.5-13.28,25.07-16-5-27.85-8.5-35.56-10.5-19.42-4.85-37.7-7.28-54.84-7.28-19,0-34.78,3.64-47.34,10.92-13.14,7.57-19.71,17.71-19.71,30.42s6.21,22.21,18.64,28.06c12.42,5.71,26.85,8.57,43.27,8.57,18.85,0,37.27-3.79,55.27-11.35,12.85-5.57,26.63-14.57,41.35-26.99,32.41,14.57,60.19,24.78,83.33,30.63,5.71,1.43,9.35,2.36,10.92,2.79,1.43.43,2.5.64,3.21.64,1.85,0,3.5-1.07,4.93-3.21l10.07-13.92c1-1.57,1.5-2.79,1.5-3.64,0-1.29-1.36-2.07-4.07-2.36-6.14-.57-14.07-1.93-23.78-4.07-18.56-4.14-32.13-7.92-40.7-11.35-17.71-6.57-27.85-10.35-30.42-11.35,9.71-11.42,17.99-24.92,24.85-40.49,1.79-4.28,3.73-9.13,5.8-14.5h69.03c5.25,0,8.88-1.34,10.88-4.02l5.26-6.17c1.25-1.79,1.88-3.04,1.88-3.75,0-1.96-2.51-2.95-7.51-2.95h-73.24c2.11-5.82,4.34-12.08,6.67-18.79h71.91c5.25,0,8.88-1.34,10.88-4.02l5.26-6.17c1.25-1.79,1.88-3.04,1.88-3.75,0-1.97-2.51-2.95-7.51-2.95h-76.63c3.77-11.14,7.79-23.25,12.07-36.4,9.28-28.84,16.85-49.84,22.71-62.98,10.28-22.71,21.7-39.91,34.27-51.63,9.14-8.57,17.06-12.85,23.78-12.85,2.43,0,4.5.85,6.21,2.57,4.71,4.15,7.07,10.21,7.07,18.21,0,17.13-7.64,43.41-22.92,78.83-4.71,10.85-7.07,17-7.07,18.42,0,1.57.71,2.36,2.14,2.36.71,0,1.71-.14,3-.43l11.14-2.57c1-.28,2.14-.78,3.43-1.5,2.28-1.29,4.78-6.07,7.5-14.35,10.85-32.13,16.28-56.77,16.28-73.9,0-10.71-2-19.42-6-26.14ZM463.69,1012.87c-19.85,0-33.99-4.07-42.42-12.21-2.86-2.85-4.28-6.35-4.28-10.5,0-7.57,4.78-13.56,14.35-17.99,9.71-4.43,21.56-6.64,35.56-6.64,22.56,0,49.34,4.93,80.33,14.78-25.71,21.71-53.55,32.56-83.54,32.56Z"/>
        <path class="cls-7" d="M694.05,415.55c-8.14,5-12.21,12.28-12.21,21.85,0,8.86,3.64,18.56,10.93,29.13,10.14,14.71,25.42,28.63,45.84,41.77,24.9,15.92,64.18,32.18,117.8,48.77v50.11c.18,5.51,1.34,9.38,3.48,11.64l7.51,7.51c1.43,1.5,2.68,2.25,3.75,2.25,1.43,0,2.15-2.63,2.15-7.88v-58.54c1.59.47,3.15.94,4.77,1.41,5,1.45,9.66,2.83,14.03,4.13v55.34c.18,5.51,1.34,9.38,3.48,11.64l7.51,7.51c1.43,1.5,2.68,2.25,3.75,2.25,1.43,0,2.15-2.63,2.15-7.88v-63.67c11.56,3.66,19.55,6.48,23.93,8.47,8.14,3.71,16.5,8.14,25.07,13.28-5,16-8.5,27.85-10.5,35.56-4.85,19.42-7.28,37.7-7.28,54.84,0,19,3.64,34.78,10.92,47.34,7.57,13.14,17.71,19.71,30.42,19.71,12.85,0,22.21-6.21,28.06-18.64,5.71-12.42,8.57-26.85,8.57-43.27,0-18.85-3.79-37.27-11.35-55.27-5.57-12.85-14.57-26.63-26.99-41.35,14.57-32.41,24.78-60.19,30.63-83.33,1.43-5.71,2.36-9.35,2.79-10.92.43-1.43.64-2.5.64-3.21,0-1.85-1.07-3.5-3.21-4.93l-13.92-10.07c-1.57-1-2.79-1.5-3.64-1.5-1.29,0-2.07,1.36-2.36,4.07-.57,6.14-1.93,14.07-4.07,23.78-4.14,18.56-7.92,32.13-11.35,40.7-6.57,17.71-10.35,27.85-11.35,30.42-11.42-9.71-24.92-17.99-40.49-24.85-4.28-1.79-9.13-3.73-14.5-5.8v-27.73s0-41.29,0-41.29c0-5.25-1.34-8.88-4.02-10.88l-6.17-5.26c-1.79-1.25-3.04-1.88-3.75-1.88-1.96,0-2.95,2.51-2.95,7.51v48.42s0,24.81,0,24.81c-5.82-2.11-12.08-4.34-18.79-6.67v-30.62s0-41.29,0-41.29c0-5.25-1.34-8.88-4.02-10.88l-6.17-5.26c-1.79-1.25-3.04-1.88-3.75-1.88-1.97,0-2.95,2.51-2.95,7.51v48.42s0,28.2,0,28.2c-11.14-3.77-23.25-7.79-36.4-12.07-28.84-9.28-49.84-16.85-62.98-22.71-22.71-10.28-39.91-21.7-51.63-34.27-8.57-9.14-12.85-17.06-12.85-23.78,0-2.43.85-4.5,2.57-6.21,4.15-4.71,10.21-7.07,18.21-7.07,17.13,0,43.41,7.64,78.83,22.92,10.85,4.71,17,7.07,18.42,7.07,1.57,0,2.36-.71,2.36-2.14,0-.71-.14-1.71-.43-3l-2.57-11.14c-.28-1-.78-2.14-1.5-3.43-1.29-2.28-6.07-4.78-14.35-7.5-32.13-10.85-56.77-16.28-73.9-16.28-10.71,0-19.42,2-26.14,6ZM1007.45,692.53c0,19.85-4.07,33.99-12.21,42.42-2.85,2.86-6.35,4.28-10.5,4.28-7.57,0-13.56-4.78-17.99-14.35-4.43-9.71-6.64-21.56-6.64-35.56,0-22.56,4.93-49.34,14.78-80.33,21.71,25.71,32.56,53.55,32.56,83.54Z"/>
        <path class="cls-7" d="M410.13,462.17c5,8.14,12.28,12.21,21.85,12.21,8.86,0,18.56-3.64,29.13-10.93,14.71-10.14,28.63-25.42,41.77-45.84,15.92-24.9,32.18-64.18,48.77-117.8h50.11c5.51-.18,9.38-1.34,11.64-3.48l7.51-7.51c1.5-1.43,2.25-2.68,2.25-3.75,0-1.43-2.63-2.15-7.88-2.15h-58.54c.47-1.59.94-3.15,1.41-4.77,1.45-5,2.83-9.66,4.13-14.03h55.34c5.51-.18,9.38-1.34,11.64-3.48l7.51-7.51c1.5-1.43,2.25-2.68,2.25-3.75,0-1.43-2.63-2.15-7.88-2.15h-63.67c3.66-11.56,6.48-19.55,8.47-23.93,3.71-8.14,8.14-16.5,13.28-25.07,16,5,27.85,8.5,35.56,10.5,19.42,4.85,37.7,7.28,54.84,7.28,19,0,34.78-3.64,47.34-10.92,13.14-7.57,19.71-17.71,19.71-30.42,0-12.85-6.21-22.21-18.64-28.06-12.42-5.71-26.85-8.57-43.27-8.57-18.85,0-37.27,3.79-55.27,11.35-12.85,5.57-26.63,14.57-41.35,26.99-32.41-14.57-60.19-24.78-83.33-30.63-5.71-1.43-9.35-2.36-10.92-2.79-1.43-.43-2.5-.64-3.21-.64-1.85,0-3.5,1.07-4.93,3.21l-10.07,13.92c-1,1.57-1.5,2.79-1.5,3.64,0,1.29,1.36,2.07,4.07,2.36,6.14.57,14.07,1.93,23.78,4.07,18.56,4.14,32.13,7.92,40.7,11.35,17.71,6.57,27.85,10.35,30.42,11.35-9.71,11.42-17.99,24.92-24.85,40.49-1.79,4.28-3.73,9.13-5.8,14.5h-27.73s-41.29,0-41.29,0c-5.25,0-8.88,1.34-10.88,4.02l-5.26,6.17c-1.25,1.79-1.88,3.04-1.88,3.75,0,1.96,2.51,2.95,7.51,2.95h48.42s24.81,0,24.81,0c-2.11,5.82-4.34,12.08-6.67,18.79h-30.62s-41.29,0-41.29,0c-5.25,0-8.88,1.34-10.88,4.02l-5.26,6.17c-1.25,1.79-1.88,3.04-1.88,3.75,0,1.97,2.51,2.95,7.51,2.95h48.42s28.2,0,28.2,0c-3.77,11.14-7.79,23.25-12.07,36.4-9.28,28.84-16.85,49.84-22.71,62.98-10.28,22.71-21.7,39.91-34.27,51.63-9.14,8.57-17.06,12.85-23.78,12.85-2.43,0-4.5-.85-6.21-2.57-4.71-4.15-7.07-10.21-7.07-18.21,0-17.13,7.64-43.41,22.92-78.83,4.71-10.85,7.07-17,7.07-18.42,0-1.57-.71-2.36-2.14-2.36-.71,0-1.71.14-3,.43l-11.14,2.57c-1,.28-2.14.78-3.43,1.5-2.28,1.29-4.78,6.07-7.5,14.35-10.85,32.13-16.28,56.77-16.28,73.9,0,10.71,2,19.42,6,26.14ZM687.11,148.77c19.85,0,33.99,4.07,42.42,12.21,2.86,2.85,4.28,6.35,4.28,10.5,0,7.57-4.78,13.56-14.35,17.99-9.71,4.43-21.56,6.64-35.56,6.64-22.56,0-49.34-4.93-80.33-14.78,25.71-21.71,53.55-32.56,83.54-32.56Z"/>
        <path class="cls-7" d="M456.75,746.09c8.14-5,12.21-12.28,12.21-21.85,0-8.86-3.64-18.56-10.93-29.13-10.14-14.71-25.42-28.63-45.84-41.77-24.9-15.92-64.18-32.18-117.8-48.77v-50.11c-.18-5.51-1.34-9.38-3.48-11.64l-7.51-7.51c-1.43-1.5-2.68-2.25-3.75-2.25-1.43,0-2.15,2.63-2.15,7.88v58.54c-1.59-.47-3.15-.94-4.77-1.41-5-1.45-9.66-2.83-14.03-4.13v-55.34c-.18-5.51-1.34-9.38-3.48-11.64l-7.51-7.51c-1.43-1.5-2.68-2.25-3.75-2.25-1.43,0-2.15,2.63-2.15,7.88v63.67c-11.56-3.66-19.55-6.48-23.93-8.47-8.14-3.71-16.5-8.14-25.07-13.28,5-16,8.5-27.85,10.5-35.56,4.85-19.42,7.28-37.7,7.28-54.84,0-19-3.64-34.78-10.92-47.34-7.57-13.14-17.71-19.71-30.42-19.71-12.85,0-22.21,6.21-28.06,18.64-5.71,12.42-8.57,26.85-8.57,43.27,0,18.85,3.79,37.27,11.35,55.27,5.57,12.85,14.57,26.63,26.99,41.35-14.57,32.41-24.78,60.19-30.63,83.33-1.43,5.71-2.36,9.35-2.79,10.92-.43,1.43-.64,2.5-.64,3.21,0,1.85,1.07,3.5,3.21,4.93l13.92,10.07c1.57,1,2.79,1.5,3.64,1.5,1.29,0,2.07-1.36,2.36-4.07.57-6.14,1.93-14.07,4.07-23.78,4.14-18.56,7.92-32.13,11.35-40.7,6.57-17.71,10.35-27.85,11.35-30.42,11.42,9.71,24.92,17.99,40.49,24.85,4.28,1.79,9.13,3.73,14.5,5.8v27.73s0,41.29,0,41.29c0,5.25,1.34,8.88,4.02,10.88l6.17,5.26c1.79,1.25,3.04,1.88,3.75,1.88,1.96,0,2.95-2.51,2.95-7.51v-48.42s0-24.81,0-24.81c5.82,2.11,12.08,4.34,18.79,6.67v30.62s0,41.29,0,41.29c0,5.25,1.34,8.88,4.02,10.88l6.17,5.26c1.79,1.25,3.04,1.88,3.75,1.88,1.97,0,2.95-2.51,2.95-7.51v-48.42s0-28.2,0-28.2c11.14,3.77,23.25,7.79,36.4,12.07,28.84,9.28,49.84,16.85,62.98,22.71,22.71,10.28,39.91,21.7,51.63,34.27,8.57,9.14,12.85,17.06,12.85,23.78,0,2.43-.85,4.5-2.57,6.21-4.15,4.71-10.21,7.07-18.21,7.07-17.13,0-43.41-7.64-78.83-22.92-10.85-4.71-17-7.07-18.42-7.07-1.57,0-2.36.71-2.36,2.14,0,.71.14,1.71.43,3l2.57,11.14c.28,1,.78,2.14,1.5,3.43,1.29,2.28,6.07,4.78,14.35,7.5,32.13,10.85,56.77,16.28,73.9,16.28,10.71,0,19.42-2,26.14-6ZM143.35,469.11c0-19.85,4.07-33.99,12.21-42.42,2.85-2.86,6.35-4.28,10.5-4.28,7.57,0,13.56,4.78,17.99,14.35,4.43,9.71,6.64,21.56,6.64,35.56,0,22.56-4.93,49.34-14.78,80.33-21.71-25.71-32.56-53.55-32.56-83.54Z"/>
      </g>
      <g>
        <path class="cls-8" d="M713.67,263.33l1.2-13.8c.62-7.78,1.1-11.94,1.46-12.47,3.56-5.3,16.73-11.18,39.53-17.65,48.19-13.76,83.85-12.87,106.99,2.67,13.95,9.37,22.66,22.91,26.15,40.62,3.36,17.12.48,32.48-8.65,46.08-12.69,18.9-32.81,34.34-60.34,46.34-10.87,4.74-34.41,10.97-70.6,18.7-67.2,14.58-118.39,34.14-153.57,58.68-7.57,5.17-12.86,6.74-15.86,4.73-3-2.02-3.5-4.52-1.48-7.53.71-1.06,1.81-2.11,3.28-3.17,2.31-1.53,6.68-4.99,13.13-10.4,21.47-17.86,42.59-32.51,63.34-43.94,20.27-11.5,41.51-20.8,63.73-27.93,19.01-6.19,40.87-12.4,65.55-18.63,20.9-5.18,38.95-10.49,54.13-15.92,14.76-5.2,25.35-12.57,31.76-22.1,3.91-5.83,5.21-12.9,3.88-21.23-1.5-9.98-5.87-17.4-13.11-22.26-14.48-9.73-37.84-10.04-70.09-.95-15.54,4.43-38.7,13.73-69.48,27.91-4.79,2.16-7.97,2.72-9.56,1.65-1.42-.95-1.88-4.08-1.39-9.39Z"/>
        <path class="cls-8" d="M257.91,442.55l-13.8-1.2c-7.78-.62-11.94-1.1-12.47-1.46-5.3-3.56-11.18-16.73-17.65-39.53-13.76-48.19-12.87-83.85,2.67-106.99,9.37-13.95,22.91-22.66,40.62-26.15,17.12-3.36,32.48-.48,46.08,8.65,18.9,12.69,34.34,32.81,46.34,60.34,4.74,10.87,10.97,34.41,18.7,70.6,14.58,67.2,34.14,118.39,58.68,153.57,5.17,7.57,6.74,12.86,4.73,15.86-2.02,3-4.52,3.5-7.53,1.48-1.06-.71-2.11-1.81-3.17-3.28-1.53-2.31-4.99-6.68-10.4-13.13-17.86-21.47-32.51-42.59-43.94-63.34-11.5-20.27-20.8-41.51-27.93-63.73-6.19-19.01-12.4-40.87-18.63-65.55-5.18-20.9-10.49-38.95-15.92-54.13-5.2-14.76-12.57-25.35-22.1-31.76-5.83-3.91-12.9-5.21-21.23-3.88-9.98,1.5-17.4,5.87-22.26,13.11-9.73,14.48-10.04,37.84-.95,70.09,4.43,15.54,13.73,38.7,27.91,69.48,2.16,4.79,2.72,7.97,1.65,9.56-.95,1.42-4.08,1.88-9.39,1.39Z"/>
        <path class="cls-8" d="M437.13,898.31l-1.2,13.8c-.62,7.78-1.1,11.94-1.46,12.47-3.56,5.3-16.73,11.18-39.53,17.65-48.19,13.76-83.85,12.87-106.99-2.67-13.95-9.37-22.66-22.91-26.15-40.62-3.36-17.12-.48-32.48,8.65-46.08,12.69-18.9,32.81-34.34,60.34-46.34,10.87-4.74,34.41-10.97,70.6-18.7,67.2-14.58,118.39-34.14,153.57-58.68,7.57-5.17,12.86-6.74,15.86-4.73,3,2.02,3.5,4.52,1.48,7.53-.71,1.06-1.81,2.11-3.28,3.17-2.31,1.53-6.68,4.99-13.13,10.4-21.47,17.86-42.59,32.51-63.34,43.94-20.27,11.5-41.51,20.8-63.73,27.93-19.01,6.19-40.87,12.4-65.55,18.63-20.9,5.18-38.95,10.49-54.13,15.92-14.76,5.2-25.35,12.57-31.76,22.1-3.91,5.83-5.21,12.9-3.88,21.23,1.5,9.98,5.87,17.4,13.11,22.26,14.48,9.73,37.84,10.04,70.09.95,15.54-4.43,38.7-13.73,69.48-27.91,4.79-2.16,7.97-2.72,9.56-1.65,1.42.95,1.88,4.08,1.39,9.39Z"/>
        <path class="cls-8" d="M892.89,719.09l13.8,1.2c7.78.62,11.94,1.1,12.47,1.46,5.3,3.56,11.18,16.73,17.65,39.53,13.76,48.19,12.87,83.85-2.67,106.99-9.37,13.95-22.91,22.66-40.62,26.15-17.12,3.36-32.48.48-46.08-8.65-18.9-12.69-34.34-32.81-46.34-60.34-4.74-10.87-10.97-34.41-18.7-70.6-14.58-67.2-34.14-118.39-58.68-153.57-5.17-7.57-6.74-12.86-4.73-15.86,2.02-3,4.52-3.5,7.53-1.48,1.06.71,2.11,1.81,3.17,3.28,1.53,2.31,4.99,6.68,10.4,13.13,17.86,21.47,32.51,42.59,43.94,63.34,11.5,20.27,20.8,41.51,27.93,63.73,6.19,19.01,12.4,40.87,18.63,65.55,5.18,20.9,10.49,38.95,15.92,54.13,5.2,14.76,12.57,25.35,22.1,31.76,5.83,3.91,12.9,5.21,21.23,3.88,9.98-1.5,17.4-5.87,22.26-13.11,9.73-14.48,10.04-37.84.95-70.09-4.43-15.54-13.73-38.7-27.91-69.48-2.16-4.79-2.72-7.97-1.65-9.56.95-1.42,4.08-1.88,9.39-1.39Z"/>
        <path class="cls-8" d="M740.66,699.47c-5-8.14-12.28-12.21-21.85-12.21-8.86,0-18.56,3.64-29.13,10.93-14.71,10.14-28.63,25.42-41.77,45.84-15.92,24.9-32.18,64.18-48.77,117.8h-50.11c-5.51.18-9.38,1.34-11.64,3.48l-7.51,7.51c-1.5,1.43-2.25,2.68-2.25,3.75,0,1.43,2.63,2.15,7.88,2.15h58.54c-.47,1.59-.94,3.15-1.41,4.77-1.45,5-2.83,9.66-4.13,14.03h-55.34c-5.51.18-9.38,1.34-11.64,3.48l-7.51,7.51c-1.5,1.43-2.25,2.68-2.25,3.75,0,1.43,2.63,2.15,7.88,2.15h63.67c-3.66,11.56-6.48,19.55-8.47,23.93-3.71,8.14-8.14,16.5-13.28,25.07-16-5-27.85-8.5-35.56-10.5-19.42-4.85-37.7-7.28-54.84-7.28-19,0-34.78,3.64-47.34,10.92-13.14,7.57-19.71,17.71-19.71,30.42s6.21,22.21,18.64,28.06c12.42,5.71,26.85,8.57,43.27,8.57,18.85,0,37.27-3.79,55.27-11.35,12.85-5.57,26.63-14.57,41.35-26.99,32.41,14.57,60.19,24.78,83.33,30.63,5.71,1.43,9.35,2.36,10.92,2.79,1.43.43,2.5.64,3.21.64,1.85,0,3.5-1.07,4.93-3.21l10.07-13.92c1-1.57,1.5-2.79,1.5-3.64,0-1.29-1.36-2.07-4.07-2.36-6.14-.57-14.07-1.93-23.78-4.07-18.56-4.14-32.13-7.92-40.7-11.35-17.71-6.57-27.85-10.35-30.42-11.35,9.71-11.42,17.99-24.92,24.85-40.49,1.79-4.28,3.73-9.13,5.8-14.5h69.03c5.25,0,8.88-1.34,10.88-4.02l5.26-6.17c1.25-1.79,1.88-3.04,1.88-3.75,0-1.96-2.51-2.95-7.51-2.95h-73.24c2.11-5.82,4.34-12.08,6.67-18.79h71.91c5.25,0,8.88-1.34,10.88-4.02l5.26-6.17c1.25-1.79,1.88-3.04,1.88-3.75,0-1.97-2.51-2.95-7.51-2.95h-76.63c3.77-11.14,7.79-23.25,12.07-36.4,9.28-28.84,16.85-49.84,22.71-62.98,10.28-22.71,21.7-39.91,34.27-51.63,9.14-8.57,17.06-12.85,23.78-12.85,2.43,0,4.5.85,6.21,2.57,4.71,4.15,7.07,10.21,7.07,18.21,0,17.13-7.64,43.41-22.92,78.83-4.71,10.85-7.07,17-7.07,18.42,0,1.57.71,2.36,2.14,2.36.71,0,1.71-.14,3-.43l11.14-2.57c1-.28,2.14-.78,3.43-1.5,2.28-1.29,4.78-6.07,7.5-14.35,10.85-32.13,16.28-56.77,16.28-73.9,0-10.71-2-19.42-6-26.14ZM463.69,1012.87c-19.85,0-33.99-4.07-42.42-12.21-2.86-2.85-4.28-6.35-4.28-10.5,0-7.57,4.78-13.56,14.35-17.99,9.71-4.43,21.56-6.64,35.56-6.64,22.56,0,49.34,4.93,80.33,14.78-25.71,21.71-53.55,32.56-83.54,32.56Z"/>
        <path class="cls-8" d="M694.05,415.55c-8.14,5-12.21,12.28-12.21,21.85,0,8.86,3.64,18.56,10.93,29.13,10.14,14.71,25.42,28.63,45.84,41.77,24.9,15.92,64.18,32.18,117.8,48.77v50.11c.18,5.51,1.34,9.38,3.48,11.64l7.51,7.51c1.43,1.5,2.68,2.25,3.75,2.25,1.43,0,2.15-2.63,2.15-7.88v-58.54c1.59.47,3.15.94,4.77,1.41,5,1.45,9.66,2.83,14.03,4.13v55.34c.18,5.51,1.34,9.38,3.48,11.64l7.51,7.51c1.43,1.5,2.68,2.25,3.75,2.25,1.43,0,2.15-2.63,2.15-7.88v-63.67c11.56,3.66,19.55,6.48,23.93,8.47,8.14,3.71,16.5,8.14,25.07,13.28-5,16-8.5,27.85-10.5,35.56-4.85,19.42-7.28,37.7-7.28,54.84,0,19,3.64,34.78,10.92,47.34,7.57,13.14,17.71,19.71,30.42,19.71,12.85,0,22.21-6.21,28.06-18.64,5.71-12.42,8.57-26.85,8.57-43.27,0-18.85-3.79-37.27-11.35-55.27-5.57-12.85-14.57-26.63-26.99-41.35,14.57-32.41,24.78-60.19,30.63-83.33,1.43-5.71,2.36-9.35,2.79-10.92.43-1.43.64-2.5.64-3.21,0-1.85-1.07-3.5-3.21-4.93l-13.92-10.07c-1.57-1-2.79-1.5-3.64-1.5-1.29,0-2.07,1.36-2.36,4.07-.57,6.14-1.93,14.07-4.07,23.78-4.14,18.56-7.92,32.13-11.35,40.7-6.57,17.71-10.35,27.85-11.35,30.42-11.42-9.71-24.92-17.99-40.49-24.85-4.28-1.79-9.13-3.73-14.5-5.8v-27.73s0-41.29,0-41.29c0-5.25-1.34-8.88-4.02-10.88l-6.17-5.26c-1.79-1.25-3.04-1.88-3.75-1.88-1.96,0-2.95,2.51-2.95,7.51v48.42s0,24.81,0,24.81c-5.82-2.11-12.08-4.34-18.79-6.67v-30.62s0-41.29,0-41.29c0-5.25-1.34-8.88-4.02-10.88l-6.17-5.26c-1.79-1.25-3.04-1.88-3.75-1.88-1.97,0-2.95,2.51-2.95,7.51v48.42s0,28.2,0,28.2c-11.14-3.77-23.25-7.79-36.4-12.07-28.84-9.28-49.84-16.85-62.98-22.71-22.71-10.28-39.91-21.7-51.63-34.27-8.57-9.14-12.85-17.06-12.85-23.78,0-2.43.85-4.5,2.57-6.21,4.15-4.71,10.21-7.07,18.21-7.07,17.13,0,43.41,7.64,78.83,22.92,10.85,4.71,17,7.07,18.42,7.07,1.57,0,2.36-.71,2.36-2.14,0-.71-.14-1.71-.43-3l-2.57-11.14c-.28-1-.78-2.14-1.5-3.43-1.29-2.28-6.07-4.78-14.35-7.5-32.13-10.85-56.77-16.28-73.9-16.28-10.71,0-19.42,2-26.14,6ZM1007.45,692.53c0,19.85-4.07,33.99-12.21,42.42-2.85,2.86-6.35,4.28-10.5,4.28-7.57,0-13.56-4.78-17.99-14.35-4.43-9.71-6.64-21.56-6.64-35.56,0-22.56,4.93-49.34,14.78-80.33,21.71,25.71,32.56,53.55,32.56,83.54Z"/>
        <path class="cls-8" d="M410.13,462.17c5,8.14,12.28,12.21,21.85,12.21,8.86,0,18.56-3.64,29.13-10.93,14.71-10.14,28.63-25.42,41.77-45.84,15.92-24.9,32.18-64.18,48.77-117.8h50.11c5.51-.18,9.38-1.34,11.64-3.48l7.51-7.51c1.5-1.43,2.25-2.68,2.25-3.75,0-1.43-2.63-2.15-7.88-2.15h-58.54c.47-1.59.94-3.15,1.41-4.77,1.45-5,2.83-9.66,4.13-14.03h55.34c5.51-.18,9.38-1.34,11.64-3.48l7.51-7.51c1.5-1.43,2.25-2.68,2.25-3.75,0-1.43-2.63-2.15-7.88-2.15h-63.67c3.66-11.56,6.48-19.55,8.47-23.93,3.71-8.14,8.14-16.5,13.28-25.07,16,5,27.85,8.5,35.56,10.5,19.42,4.85,37.7,7.28,54.84,7.28,19,0,34.78-3.64,47.34-10.92,13.14-7.57,19.71-17.71,19.71-30.42,0-12.85-6.21-22.21-18.64-28.06-12.42-5.71-26.85-8.57-43.27-8.57-18.85,0-37.27,3.79-55.27,11.35-12.85,5.57-26.63,14.57-41.35,26.99-32.41-14.57-60.19-24.78-83.33-30.63-5.71-1.43-9.35-2.36-10.92-2.79-1.43-.43-2.5-.64-3.21-.64-1.85,0-3.5,1.07-4.93,3.21l-10.07,13.92c-1,1.57-1.5,2.79-1.5,3.64,0,1.29,1.36,2.07,4.07,2.36,6.14.57,14.07,1.93,23.78,4.07,18.56,4.14,32.13,7.92,40.7,11.35,17.71,6.57,27.85,10.35,30.42,11.35-9.71,11.42-17.99,24.92-24.85,40.49-1.79,4.28-3.73,9.13-5.8,14.5h-27.73s-41.29,0-41.29,0c-5.25,0-8.88,1.34-10.88,4.02l-5.26,6.17c-1.25,1.79-1.88,3.04-1.88,3.75,0,1.96,2.51,2.95,7.51,2.95h48.42s24.81,0,24.81,0c-2.11,5.82-4.34,12.08-6.67,18.79h-30.62s-41.29,0-41.29,0c-5.25,0-8.88,1.34-10.88,4.02l-5.26,6.17c-1.25,1.79-1.88,3.04-1.88,3.75,0,1.97,2.51,2.95,7.51,2.95h48.42s28.2,0,28.2,0c-3.77,11.14-7.79,23.25-12.07,36.4-9.28,28.84-16.85,49.84-22.71,62.98-10.28,22.71-21.7,39.91-34.27,51.63-9.14,8.57-17.06,12.85-23.78,12.85-2.43,0-4.5-.85-6.21-2.57-4.71-4.15-7.07-10.21-7.07-18.21,0-17.13,7.64-43.41,22.92-78.83,4.71-10.85,7.07-17,7.07-18.42,0-1.57-.71-2.36-2.14-2.36-.71,0-1.71.14-3,.43l-11.14,2.57c-1,.28-2.14.78-3.43,1.5-2.28,1.29-4.78,6.07-7.5,14.35-10.85,32.13-16.28,56.77-16.28,73.9,0,10.71,2,19.42,6,26.14ZM687.11,148.77c19.85,0,33.99,4.07,42.42,12.21,2.86,2.85,4.28,6.35,4.28,10.5,0,7.57-4.78,13.56-14.35,17.99-9.71,4.43-21.56,6.64-35.56,6.64-22.56,0-49.34-4.93-80.33-14.78,25.71-21.71,53.55-32.56,83.54-32.56Z"/>
        <path class="cls-8" d="M456.75,746.09c8.14-5,12.21-12.28,12.21-21.85,0-8.86-3.64-18.56-10.93-29.13-10.14-14.71-25.42-28.63-45.84-41.77-24.9-15.92-64.18-32.18-117.8-48.77v-50.11c-.18-5.51-1.34-9.38-3.48-11.64l-7.51-7.51c-1.43-1.5-2.68-2.25-3.75-2.25-1.43,0-2.15,2.63-2.15,7.88v58.54c-1.59-.47-3.15-.94-4.77-1.41-5-1.45-9.66-2.83-14.03-4.13v-55.34c-.18-5.51-1.34-9.38-3.48-11.64l-7.51-7.51c-1.43-1.5-2.68-2.25-3.75-2.25-1.43,0-2.15,2.63-2.15,7.88v63.67c-11.56-3.66-19.55-6.48-23.93-8.47-8.14-3.71-16.5-8.14-25.07-13.28,5-16,8.5-27.85,10.5-35.56,4.85-19.42,7.28-37.7,7.28-54.84,0-19-3.64-34.78-10.92-47.34-7.57-13.14-17.71-19.71-30.42-19.71-12.85,0-22.21,6.21-28.06,18.64-5.71,12.42-8.57,26.85-8.57,43.27,0,18.85,3.79,37.27,11.35,55.27,5.57,12.85,14.57,26.63,26.99,41.35-14.57,32.41-24.78,60.19-30.63,83.33-1.43,5.71-2.36,9.35-2.79,10.92-.43,1.43-.64,2.5-.64,3.21,0,1.85,1.07,3.5,3.21,4.93l13.92,10.07c1.57,1,2.79,1.5,3.64,1.5,1.29,0,2.07-1.36,2.36-4.07.57-6.14,1.93-14.07,4.07-23.78,4.14-18.56,7.92-32.13,11.35-40.7,6.57-17.71,10.35-27.85,11.35-30.42,11.42,9.71,24.92,17.99,40.49,24.85,4.28,1.79,9.13,3.73,14.5,5.8v27.73s0,41.29,0,41.29c0,5.25,1.34,8.88,4.02,10.88l6.17,5.26c1.79,1.25,3.04,1.88,3.75,1.88,1.96,0,2.95-2.51,2.95-7.51v-48.42s0-24.81,0-24.81c5.82,2.11,12.08,4.34,18.79,6.67v30.62s0,41.29,0,41.29c0,5.25,1.34,8.88,4.02,10.88l6.17,5.26c1.79,1.25,3.04,1.88,3.75,1.88,1.97,0,2.95-2.51,2.95-7.51v-48.42s0-28.2,0-28.2c11.14,3.77,23.25,7.79,36.4,12.07,28.84,9.28,49.84,16.85,62.98,22.71,22.71,10.28,39.91,21.7,51.63,34.27,8.57,9.14,12.85,17.06,12.85,23.78,0,2.43-.85,4.5-2.57,6.21-4.15,4.71-10.21,7.07-18.21,7.07-17.13,0-43.41-7.64-78.83-22.92-10.85-4.71-17-7.07-18.42-7.07-1.57,0-2.36.71-2.36,2.14,0,.71.14,1.71.43,3l2.57,11.14c.28,1,.78,2.14,1.5,3.43,1.29,2.28,6.07,4.78,14.35,7.5,32.13,10.85,56.77,16.28,73.9,16.28,10.71,0,19.42-2,26.14-6ZM143.35,469.11c0-19.85,4.07-33.99,12.21-42.42,2.85-2.86,6.35-4.28,10.5-4.28,7.57,0,13.56,4.78,17.99,14.35,4.43,9.71,6.64,21.56,6.64,35.56,0,22.56-4.93,49.34-14.78,80.33-21.71-25.71-32.56-53.55-32.56-83.54Z"/>
      </g>
    </g>
    <g>
      <g>
        <path class="cls-6" d="M91.09,625.25c-.55,0-1.05-.31-1.31-.79l-29.23-54.75v47.36c0,.64.09,1.51.52,2,.22.25.84.75,2.46,1.2.65.18,1.1.77,1.1,1.45v2.04c0,.83-.67,1.5-1.5,1.5h-25.53c-.83,0-1.5-.67-1.5-1.5v-2.04c0-.67.45-1.27,1.1-1.45,1.62-.45,2.23-.94,2.46-1.2.43-.49.52-1.36.52-2v-73.6c0-.89-.18-1.55-.52-1.94-.22-.25-.84-.75-2.46-1.2-.65-.18-1.1-.77-1.1-1.45v-2.04c0-.83.67-1.5,1.5-1.5h33.5c.83,0,1.5.67,1.5,1.5v2.04c0,.69-.46,1.28-1.13,1.45-1.55.4-1.86,1.1-1.86,2.05,0,.59.24,1.34.71,2.22l22.41,42.46,22.69-41.7c1.27-2.34,1.41-3.26,1.41-3.55,0-.53,0-1.25-1.83-1.44-.77-.08-1.35-.72-1.35-1.49v-2.04c0-.83.67-1.5,1.5-1.5h32.86c.83,0,1.5.67,1.5,1.5v2.04c0,.67-.45,1.26-1.1,1.45-1.62.45-2.23.94-2.46,1.2-.34.39-.52,1.05-.52,1.94v73.6c0,.64.09,1.51.52,2,.22.26.84.75,2.46,1.2.65.18,1.1.77,1.1,1.45v2.04c0,.83-.67,1.5-1.5,1.5h-27.12c-.83,0-1.5-.67-1.5-1.5v-2.04c0-.68.46-1.28,1.13-1.45,1.47-.38,2.12-.84,2.4-1.16.36-.41.55-1.1.55-2.03v-47.64l-31.03,55.06c-.27.47-.77.76-1.31.76h-.02Z"/>
        <path d="M148,536.84v2.04c-1.53.42-2.59.98-3.18,1.66-.6.68-.89,1.66-.89,2.93v73.6c0,1.32.3,2.31.89,2.99.59.68,1.66,1.23,3.18,1.66v2.04h-27.12v-2.04c1.49-.38,2.54-.92,3.15-1.62.61-.7.92-1.71.92-3.02v-53.36l-33.84,60.04-32.06-60.04v53.36c0,1.32.3,2.31.89,2.99.59.68,1.66,1.23,3.18,1.66v2.04h-25.53v-2.04c1.53-.42,2.59-.98,3.18-1.66.59-.68.89-1.68.89-2.99v-73.6c0-1.27-.3-2.25-.89-2.93-.59-.68-1.66-1.23-3.18-1.66v-2.04h33.5v2.04c-2,.51-2.99,1.68-2.99,3.5,0,.85.3,1.83.89,2.93l23.71,44.93,24.03-44.16c1.06-1.95,1.59-3.38,1.59-4.27,0-1.74-1.06-2.72-3.18-2.93v-2.04h32.86M148,533.84h-32.86c-1.66,0-3,1.34-3,3v2.04c0,1.54,1.17,2.83,2.7,2.98.2.02.35.05.46.07-.07.29-.32,1.09-1.2,2.71l-21.35,39.24-21.1-39.97c-.51-.94-.54-1.41-.54-1.53,0-.21.03-.3.04-.31h0s.16-.15.7-.29c1.33-.34,2.26-1.54,2.26-2.91v-2.04c0-1.66-1.34-3-3-3h-33.5c-1.66,0-3,1.34-3,3v2.04c0,1.35.9,2.53,2.2,2.89,1.37.38,1.73.74,1.73.75h0s.14.23.14.95v73.6c0,.76-.15,1.02-.16,1.03h0s-.37.35-1.72.73c-1.3.36-2.2,1.54-2.2,2.89v2.04c0,1.66,1.34,3,3,3h25.53c1.66,0,3-1.34,3-3v-2.04c0-1.35-.9-2.53-2.2-2.89-1.36-.38-1.72-.73-1.73-.74h0s-.15-.26-.15-1.01v-41.37l26.41,49.47c.52.97,1.52,1.57,2.61,1.59h.03c1.08,0,2.08-.58,2.61-1.53l28.23-50.08v41.92c0,.81-.18,1.04-.18,1.05,0,0-.33.36-1.65.7-1.33.34-2.25,1.54-2.25,2.91v2.04c0,1.66,1.34,3,3,3h27.12c1.66,0,3-1.34,3-3v-2.04c0-1.35-.9-2.53-2.2-2.89-1.36-.38-1.72-.73-1.73-.74h0s-.15-.26-.15-1.01v-73.6c0-.73.15-.95.15-.95h0s.36-.36,1.73-.74c1.3-.36,2.2-1.54,2.2-2.89v-2.04c0-1.66-1.34-3-3-3h0Z"/>
      </g>
      <g>
        <path class="cls-6" d="M163.6,625.25c-.83,0-1.5-.67-1.5-1.5v-2.04c0-.67.45-1.27,1.1-1.45,1.62-.45,2.23-.94,2.46-1.2.43-.49.52-1.36.52-2v-73.6c0-.89-.18-1.55-.52-1.94-.22-.25-.84-.75-2.46-1.2-.65-.18-1.1-.77-1.1-1.45v-2.04c0-.83.67-1.5,1.5-1.5h27.12c.83,0,1.5.67,1.5,1.5v2.04c0,.69-.47,1.29-1.14,1.46-1.59.4-2.19.88-2.4,1.14-.36.42-.54,1.09-.54,1.99v73.6c0,.93.18,1.62.55,2.03.28.32.93.78,2.4,1.16.66.17,1.13.77,1.13,1.45v2.04c0,.83-.67,1.5-1.5,1.5h-27.12Z"/>
        <path d="M190.72,536.84v2.04c-1.53.38-2.59.92-3.18,1.62-.59.7-.89,1.69-.89,2.96v73.6c0,1.32.31,2.32.92,3.02s1.67,1.24,3.15,1.62v2.04h-27.12v-2.04c1.53-.42,2.59-.98,3.18-1.66.59-.68.89-1.68.89-2.99v-73.6c0-1.27-.3-2.25-.89-2.93-.59-.68-1.66-1.23-3.18-1.66v-2.04h27.12M190.72,533.84h-27.12c-1.66,0-3,1.34-3,3v2.04c0,1.35.9,2.53,2.2,2.89,1.37.38,1.73.74,1.73.75h0s.14.23.14.95v73.6c0,.76-.15,1.02-.16,1.03h0s-.37.35-1.72.73c-1.3.36-2.2,1.54-2.2,2.89v2.04c0,1.66,1.34,3,3,3h27.12c1.66,0,3-1.34,3-3v-2.04c0-1.37-.93-2.56-2.25-2.91-1.32-.34-1.64-.7-1.65-.7,0,0-.18-.24-.18-1.04v-73.6c0-.66.13-.96.18-1.02h0s.34-.33,1.62-.66c1.34-.33,2.27-1.53,2.27-2.91v-2.04c0-1.66-1.34-3-3-3h0Z"/>
      </g>
      <g>
        <path class="cls-6" d="M287.43,629.33c-.67,0-1.26-.45-1.45-1.1-.45-1.62-.94-2.23-1.2-2.46-.49-.43-1.36-.52-2-.52h-76.47c-.83,0-1.5-.67-1.5-1.5v-2.04c0-.67.45-1.27,1.1-1.45,1.62-.45,2.23-.94,2.46-1.2.43-.49.52-1.36.52-2v-73.54c0-.64-.09-1.51-.52-2.01-.22-.25-.84-.75-2.46-1.2-.65-.18-1.1-.77-1.1-1.45v-2.04c0-.83.67-1.5,1.5-1.5h27.12c.83,0,1.5.67,1.5,1.5v2.04c0,.69-.47,1.29-1.14,1.46-1.59.4-2.19.88-2.4,1.14-.36.42-.54,1.11-.54,2.05v64.4h51.92c.64,0,1.51-.09,2-.52.25-.22.75-.84,1.2-2.46.18-.65.77-1.1,1.45-1.1h2.04c.83,0,1.5.67,1.5,1.5v22.48c0,.83-.67,1.5-1.5,1.5h-2.04Z"/>
        <path d="M233.44,536.84v2.04c-1.53.38-2.59.92-3.18,1.62-.59.7-.89,1.71-.89,3.02v65.9h53.42c1.32,0,2.31-.3,2.99-.89.68-.59,1.23-1.66,1.66-3.18h2.04v22.48h-2.04c-.42-1.53-.98-2.59-1.66-3.18-.68-.59-1.68-.89-2.99-.89h-76.47v-2.04c1.53-.42,2.59-.98,3.18-1.66.59-.68.89-1.68.89-2.99v-73.54c0-1.32-.3-2.31-.89-2.99-.59-.68-1.66-1.23-3.18-1.66v-2.04h27.12M233.44,533.84h-27.12c-1.66,0-3,1.34-3,3v2.04c0,1.35.9,2.53,2.2,2.89,1.35.38,1.72.73,1.73.75h0s.14.26.14,1.01v73.54c0,.76-.15,1.02-.16,1.03h0s-.37.35-1.72.73c-1.3.36-2.2,1.54-2.2,2.89v2.04c0,1.66,1.34,3,3,3h76.47c.76,0,1.02.15,1.03.16h0s.35.36.73,1.72c.36,1.3,1.54,2.2,2.89,2.2h2.04c1.66,0,3-1.34,3-3v-22.48c0-1.66-1.34-3-3-3h-2.04c-1.35,0-2.53.9-2.89,2.2-.38,1.36-.73,1.72-.74,1.73h0s-.26.15-1.01.15h-50.42v-62.9c0-.7.13-1.02.18-1.08h0s.34-.33,1.62-.66c1.34-.33,2.27-1.53,2.27-2.91v-2.04c0-1.66-1.34-3-3-3h0Z"/>
      </g>
      <g>
        <path class="cls-6" d="M379.69,629.33c-.67,0-1.26-.45-1.45-1.1-.45-1.62-.94-2.23-1.2-2.46-.49-.43-1.36-.52-2-.52h-76.47c-.83,0-1.5-.67-1.5-1.5v-2.04c0-.67.45-1.27,1.1-1.45,1.62-.45,2.23-.94,2.46-1.2.43-.49.52-1.36.52-2v-73.54c0-.64-.09-1.51-.52-2.01-.22-.25-.84-.75-2.46-1.2-.65-.18-1.1-.77-1.1-1.45v-2.04c0-.83.67-1.5,1.5-1.5h27.12c.83,0,1.5.67,1.5,1.5v2.04c0,.69-.47,1.29-1.14,1.46-1.59.4-2.19.88-2.4,1.14-.36.42-.54,1.11-.54,2.05v64.4h51.92c.64,0,1.51-.09,2-.52.25-.22.75-.84,1.2-2.46.18-.65.77-1.1,1.45-1.1h2.04c.83,0,1.5.67,1.5,1.5v22.48c0,.83-.67,1.5-1.5,1.5h-2.04Z"/>
        <path d="M325.7,536.84v2.04c-1.53.38-2.59.92-3.18,1.62-.59.7-.89,1.71-.89,3.02v65.9h53.42c1.32,0,2.31-.3,2.99-.89.68-.59,1.23-1.66,1.66-3.18h2.04v22.48h-2.04c-.42-1.53-.98-2.59-1.66-3.18-.68-.59-1.68-.89-2.99-.89h-76.47v-2.04c1.53-.42,2.59-.98,3.18-1.66.59-.68.89-1.68.89-2.99v-73.54c0-1.32-.3-2.31-.89-2.99-.59-.68-1.66-1.23-3.18-1.66v-2.04h27.12M325.7,533.84h-27.12c-1.66,0-3,1.34-3,3v2.04c0,1.35.9,2.53,2.2,2.89,1.35.38,1.72.73,1.73.75h0s.14.26.14,1.01v73.54c0,.76-.15,1.02-.16,1.03h0s-.37.35-1.72.73c-1.3.36-2.2,1.54-2.2,2.89v2.04c0,1.66,1.34,3,3,3h76.47c.76,0,1.02.15,1.03.16h0s.35.36.73,1.72c.36,1.3,1.54,2.2,2.89,2.2h2.04c1.66,0,3-1.34,3-3v-22.48c0-1.66-1.34-3-3-3h-2.04c-1.35,0-2.53.9-2.89,2.2-.38,1.36-.73,1.72-.74,1.73h0s-.26.15-1.01.15h-50.42v-62.9c0-.7.13-1.02.18-1.08h0s.34-.33,1.62-.66c1.34-.33,2.27-1.53,2.27-2.91v-2.04c0-1.66-1.34-3-3-3h0Z"/>
      </g>
      <g>
        <path class="cls-6" d="M390.83,625.25c-.83,0-1.5-.67-1.5-1.5v-2.04c0-.67.45-1.27,1.1-1.45,1.62-.45,2.23-.94,2.46-1.2.43-.49.52-1.36.52-2v-73.6c0-.89-.18-1.55-.52-1.94-.22-.25-.84-.75-2.46-1.2-.65-.18-1.1-.77-1.1-1.45v-2.04c0-.83.67-1.5,1.5-1.5h27.12c.83,0,1.5.67,1.5,1.5v2.04c0,.69-.47,1.29-1.14,1.46-1.59.4-2.19.88-2.4,1.14-.36.42-.54,1.09-.54,1.99v73.6c0,.93.18,1.62.55,2.03.28.32.93.78,2.4,1.16.66.17,1.13.77,1.13,1.45v2.04c0,.83-.67,1.5-1.5,1.5h-27.12Z"/>
        <path d="M417.96,536.84v2.04c-1.53.38-2.59.92-3.18,1.62-.59.7-.89,1.69-.89,2.96v73.6c0,1.32.31,2.32.92,3.02s1.67,1.24,3.15,1.62v2.04h-27.12v-2.04c1.53-.42,2.59-.98,3.18-1.66.59-.68.89-1.68.89-2.99v-73.6c0-1.27-.3-2.25-.89-2.93-.59-.68-1.66-1.23-3.18-1.66v-2.04h27.12M417.96,533.84h-27.12c-1.66,0-3,1.34-3,3v2.04c0,1.35.9,2.53,2.2,2.89,1.37.38,1.73.74,1.73.75h0s.14.23.14.95v73.6c0,.76-.15,1.02-.16,1.03h0s-.37.35-1.72.73c-1.3.36-2.2,1.54-2.2,2.89v2.04c0,1.66,1.34,3,3,3h27.12c1.66,0,3-1.34,3-3v-2.04c0-1.37-.93-2.56-2.25-2.91-1.32-.34-1.64-.7-1.65-.7,0,0-.18-.24-.18-1.04v-73.6c0-.66.13-.96.18-1.02h0s.34-.33,1.62-.66c1.34-.33,2.27-1.53,2.27-2.91v-2.04c0-1.66-1.34-3-3-3h0Z"/>
      </g>
      <g>
        <path class="cls-6" d="M481.47,626.78c-15.36,0-27.77-4.27-36.89-12.69-4.9-4.5-8.67-9.98-11.21-16.27-2.23-5.54-3.36-11.45-3.36-17.56,0-8.94,2.33-17.24,6.91-24.67,8.79-14.2,23.72-21.53,44.39-21.79,15.5,0,27.97,4.27,37.1,12.69,9.66,8.83,14.56,20.38,14.56,34.34,0,8.56-2.35,16.67-6.98,24.1-9.04,14.5-24.03,21.84-44.53,21.84ZM481.4,551.58c-7.87,0-14.5,2.36-19.71,7-6.27,5.56-9.31,12.67-9.31,21.71s3.13,16.23,9.31,21.71c5.22,4.65,11.89,7,19.85,7s14.6-2.35,19.78-6.99c3.09-2.76,5.49-6.2,7.13-10.2,1.45-3.57,2.18-7.32,2.18-11.13,0-9.33-3.13-16.76-9.29-22.08-5.27-4.57-11.97-6.93-19.93-7.01Z"/>
        <path d="M481.34,535.31c15.16,0,27.18,4.1,36.06,12.29,9.39,8.58,14.08,19.65,14.08,33.24,0,8.32-2.25,16.09-6.75,23.3-8.79,14.09-23.21,21.14-43.26,21.14-15.04,0-26.99-4.1-35.87-12.29-4.76-4.37-8.37-9.61-10.83-15.73-2.17-5.39-3.25-11.06-3.25-17,0-8.7,2.23-16.66,6.69-23.88,8.54-13.79,22.91-20.82,43.13-21.08M481.53,610.51c8.37,0,15.3-2.46,20.78-7.38,3.27-2.93,5.78-6.51,7.52-10.75,1.53-3.77,2.29-7.67,2.29-11.7,0-9.84-3.27-17.58-9.82-23.22-5.57-4.83-12.54-7.29-20.91-7.38-8.29,0-15.19,2.46-20.71,7.38-6.54,5.81-9.82,13.42-9.82,22.83s3.27,17.03,9.82,22.83c5.52,4.92,12.47,7.38,20.84,7.38M481.34,532.31h-.04c-21.22.27-36.57,7.84-45.65,22.5-4.74,7.66-7.14,16.23-7.14,25.45,0,6.3,1.17,12.4,3.47,18.12,2.62,6.5,6.52,12.16,11.58,16.82,9.4,8.68,22.15,13.08,37.9,13.08,21.06,0,36.47-7.59,45.81-22.55,4.78-7.67,7.21-16.04,7.21-24.89,0-14.4-5.07-26.32-15.06-35.45-9.4-8.67-22.21-13.07-38.08-13.07h0ZM481.53,607.51c-7.68,0-13.85-2.17-18.85-6.62-5.93-5.26-8.81-12-8.81-20.59s2.88-15.33,8.81-20.59c5-4.46,11.13-6.62,18.72-6.62,7.68.08,13.88,2.25,18.94,6.64,5.91,5.1,8.78,11.95,8.78,20.95,0,3.62-.7,7.18-2.08,10.58-1.55,3.78-3.82,7.03-6.74,9.64-4.96,4.45-11.1,6.61-18.78,6.61h0Z"/>
      </g>
      <g>
        <path class="cls-6" d="M615.72,625.25c-.83,0-1.5-.67-1.5-1.5v-2.04c0-.71.49-1.32,1.18-1.47,1.49-.32,1.49-.89,1.49-1.27-.01-.04-.21-.88-2.69-3.41l-46.14-47.64v49.14c0,.64.09,1.51.52,2,.22.25.84.75,2.46,1.2.65.18,1.1.77,1.1,1.45v2.04c0,.83-.67,1.5-1.5,1.5h-25.53c-.83,0-1.5-.67-1.5-1.5v-2.04c0-.67.45-1.27,1.1-1.45,1.62-.45,2.23-.94,2.46-1.2.43-.49.52-1.36.52-2v-73.6c0-.89-.18-1.55-.52-1.94-.22-.25-.84-.75-2.46-1.2-.65-.18-1.1-.77-1.1-1.45v-2.04c0-.83.67-1.5,1.5-1.5h29.54c.83,0,1.5.67,1.5,1.5v2.04c0,.68-.46,1.28-1.13,1.45-1.61.41-1.61,1.1-1.61,1.48,0,.6.48,1.42,1.36,2.33l45.36,47.17v-47.85c0-.89-.17-1.55-.52-1.94-.22-.25-.84-.75-2.46-1.2-.65-.18-1.1-.77-1.1-1.45v-2.04c0-.83.67-1.5,1.5-1.5h25.53c.83,0,1.5.67,1.5,1.5v2.04c0,.67-.45,1.26-1.1,1.45-1.62.45-2.23.94-2.46,1.2-.34.39-.52,1.05-.52,1.94v73.6c0,.64.09,1.51.52,2,.22.25.84.75,2.46,1.2.65.18,1.1.77,1.1,1.45v2.04c0,.83-.67,1.5-1.5,1.5h-27.38Z"/>
        <path d="M643.09,536.84v2.04c-1.53.42-2.59.98-3.18,1.66-.59.68-.89,1.66-.89,2.93v73.6c0,1.32.3,2.31.89,2.99.59.68,1.66,1.23,3.18,1.66v2.04h-27.38v-2.04c1.78-.38,2.67-1.29,2.67-2.74,0-.85-1.04-2.33-3.12-4.46l-48.71-50.3v52.85c0,1.32.3,2.31.89,2.99.59.68,1.66,1.23,3.18,1.66v2.04h-25.53v-2.04c1.53-.42,2.59-.98,3.18-1.66.59-.68.89-1.68.89-2.99v-73.6c0-1.27-.3-2.25-.89-2.93-.59-.68-1.66-1.23-3.18-1.66v-2.04h29.54v2.04c-1.83.47-2.74,1.44-2.74,2.93,0,1.02.59,2.14,1.78,3.38l47.94,49.85v-51.57c0-1.27-.3-2.25-.89-2.93-.6-.68-1.66-1.23-3.18-1.66v-2.04h25.53M643.09,533.84h-25.53c-1.66,0-3,1.34-3,3v2.04c0,1.35.9,2.53,2.2,2.89,1.36.38,1.73.74,1.74.75h0s.14.23.14.95v44.13l-42.78-44.49c-.57-.59-.8-.98-.89-1.18.1-.04.24-.09.43-.14,1.33-.34,2.26-1.54,2.26-2.91v-2.04c0-1.66-1.34-3-3-3h-29.54c-1.66,0-3,1.34-3,3v2.04c0,1.35.9,2.53,2.2,2.89,1.37.38,1.73.74,1.73.75h0s.14.23.14.95v73.6c0,.76-.15,1.02-.16,1.03h0s-.37.35-1.72.73c-1.3.36-2.2,1.54-2.2,2.89v2.04c0,1.66,1.34,3,3,3h25.53c1.66,0,3-1.34,3-3v-2.04c0-1.35-.9-2.53-2.2-2.89-1.36-.38-1.72-.73-1.73-.74h0s-.15-.26-.15-1.02v-45.44l43.55,44.98c1.01,1.03,1.59,1.74,1.93,2.19-1.36.31-2.32,1.52-2.32,2.92v2.04c0,1.66,1.34,3,3,3h27.38c1.66,0,3-1.34,3-3v-2.04c0-1.35-.9-2.53-2.2-2.89-1.36-.38-1.72-.73-1.73-.74h0s-.15-.26-.15-1.01v-73.6c0-.73.15-.95.15-.96h0s.36-.36,1.73-.74c1.3-.36,2.2-1.54,2.2-2.89v-2.04c0-1.66-1.34-3-3-3h0Z"/>
      </g>
      <g>
        <path class="cls-6" d="M729.37,625.25c-.83,0-1.5-.67-1.5-1.5v-2.04c0-.71.49-1.32,1.18-1.47,1.49-.32,1.49-.89,1.49-1.27-.01-.04-.21-.88-2.69-3.41l-46.14-47.64v49.14c0,.64.09,1.51.52,2,.22.25.84.75,2.46,1.2.65.18,1.1.77,1.1,1.45v2.04c0,.83-.67,1.5-1.5,1.5h-25.53c-.83,0-1.5-.67-1.5-1.5v-2.04c0-.67.45-1.27,1.1-1.45,1.62-.45,2.23-.94,2.46-1.2.43-.49.52-1.36.52-2v-73.6c0-.89-.18-1.55-.52-1.94-.22-.25-.84-.75-2.46-1.2-.65-.18-1.1-.77-1.1-1.45v-2.04c0-.83.67-1.5,1.5-1.5h29.54c.83,0,1.5.67,1.5,1.5v2.04c0,.68-.46,1.28-1.13,1.45-1.61.41-1.61,1.1-1.61,1.48,0,.6.48,1.42,1.36,2.33l45.36,47.17v-47.85c0-.89-.17-1.55-.52-1.94-.22-.25-.84-.75-2.46-1.2-.65-.18-1.1-.77-1.1-1.45v-2.04c0-.83.67-1.5,1.5-1.5h25.53c.83,0,1.5.67,1.5,1.5v2.04c0,.67-.45,1.26-1.1,1.45-1.62.45-2.23.94-2.46,1.2-.34.39-.52,1.05-.52,1.94v73.6c0,.64.09,1.51.52,2,.22.25.84.75,2.46,1.2.65.18,1.1.77,1.1,1.45v2.04c0,.83-.67,1.5-1.5,1.5h-27.38Z"/>
        <path d="M756.74,536.84v2.04c-1.53.42-2.59.98-3.18,1.66-.59.68-.89,1.66-.89,2.93v73.6c0,1.32.3,2.31.89,2.99.59.68,1.66,1.23,3.18,1.66v2.04h-27.38v-2.04c1.78-.38,2.67-1.29,2.67-2.74,0-.85-1.04-2.33-3.12-4.46l-48.71-50.3v52.85c0,1.32.3,2.31.89,2.99.59.68,1.66,1.23,3.18,1.66v2.04h-25.53v-2.04c1.53-.42,2.59-.98,3.18-1.66.59-.68.89-1.68.89-2.99v-73.6c0-1.27-.3-2.25-.89-2.93-.59-.68-1.66-1.23-3.18-1.66v-2.04h29.54v2.04c-1.83.47-2.74,1.44-2.74,2.93,0,1.02.59,2.14,1.78,3.38l47.94,49.85v-51.57c0-1.27-.3-2.25-.89-2.93-.6-.68-1.66-1.23-3.18-1.66v-2.04h25.53M756.74,533.84h-25.53c-1.66,0-3,1.34-3,3v2.04c0,1.35.9,2.53,2.2,2.89,1.36.38,1.73.74,1.74.75h0s.14.23.14.95v44.13l-42.78-44.49c-.57-.59-.8-.98-.89-1.18.1-.04.24-.09.43-.14,1.33-.34,2.26-1.54,2.26-2.91v-2.04c0-1.66-1.34-3-3-3h-29.54c-1.66,0-3,1.34-3,3v2.04c0,1.35.9,2.53,2.2,2.89,1.37.38,1.73.74,1.73.75h0s.14.23.14.95v73.6c0,.76-.15,1.02-.16,1.03h0s-.37.35-1.72.73c-1.3.36-2.2,1.54-2.2,2.89v2.04c0,1.66,1.34,3,3,3h25.53c1.66,0,3-1.34,3-3v-2.04c0-1.35-.9-2.53-2.2-2.89-1.36-.38-1.72-.73-1.73-.74h0s-.15-.26-.15-1.02v-45.44l43.55,44.98c1.01,1.03,1.59,1.74,1.93,2.19-1.36.31-2.32,1.52-2.32,2.92v2.04c0,1.66,1.34,3,3,3h27.38c1.66,0,3-1.34,3-3v-2.04c0-1.35-.9-2.53-2.2-2.89-1.36-.38-1.72-.73-1.73-.74h0s-.15-.26-.15-1.01v-73.6c0-.73.15-.95.15-.96h0s.36-.36,1.73-.74c1.3-.36,2.2-1.54,2.2-2.89v-2.04c0-1.66-1.34-3-3-3h0Z"/>
      </g>
      <g>
        <path class="cls-6" d="M840.5,625.25c-.83,0-1.5-.67-1.5-1.5v-2.04c0-.73.53-1.36,1.25-1.48,2.96-.49,2.96-1.83,2.96-2.47,0-.37-.15-1.29-1.12-3.29l-5.56-11.38h-37.62l-5.44,11.37c-.88,1.85-1.06,2.85-1.06,3.36,0,.4,0,1.63,3.13,2.43.66.17,1.13.77,1.13,1.45v2.04c0,.83-.67,1.5-1.5,1.5h-28.75c-.83,0-1.5-.67-1.5-1.5v-2.04c0-.71.5-1.33,1.21-1.47,1.41-.28,2.47-.75,3.14-1.4.52-.49,1.41-1.67,2.73-4.51l31.97-66.8c1.14-2.38,1.38-3.73,1.38-4.45,0-.51,0-1.86-2.68-2.78-.61-.21-1.01-.78-1.01-1.42v-2.04c0-.83.67-1.5,1.5-1.5h30.82c.83,0,1.5.67,1.5,1.5v2.04c0,.67-.44,1.26-1.08,1.44-2.67.77-2.67,1.89-2.67,2.32,0,.99.35,2.17,1.04,3.52l33.12,67c1.64,3.34,2.76,4.79,3.4,5.42.84.82,2.02,1.38,3.5,1.67.71.13,1.22.75,1.22,1.47v2.04c0,.83-.67,1.5-1.5,1.5h-31.99ZM829.68,588.19l-11.77-25.86-11.96,25.86h23.74Z"/>
        <path d="M833.98,536.84v2.04c-2.5.72-3.76,1.97-3.76,3.76,0,1.23.4,2.63,1.21,4.2l33.11,66.98c1.4,2.84,2.63,4.79,3.69,5.83,1.06,1.04,2.48,1.73,4.27,2.07v2.04h-31.99v-2.04c2.81-.47,4.21-1.78,4.21-3.95,0-.89-.42-2.21-1.27-3.95l-5.97-12.22h-39.5l-5.85,12.22c-.81,1.7-1.21,3.04-1.21,4.01,0,1.87,1.42,3.16,4.26,3.88v2.04h-28.75v-2.04c1.7-.34,2.99-.93,3.88-1.78.89-.85,1.91-2.5,3.06-4.97l31.96-66.79c1.02-2.12,1.53-3.82,1.53-5.09,0-1.95-1.23-3.35-3.69-4.2v-2.04h30.82M803.6,589.69h28.41l-14.09-30.96-14.32,30.96M833.98,533.84h-30.82c-1.66,0-3,1.34-3,3v2.04c0,1.28.81,2.42,2.02,2.84,1.67.58,1.67,1.13,1.67,1.37,0,.37-.12,1.48-1.23,3.8l-31.96,66.79c-1.35,2.9-2.14,3.82-2.42,4.09-.46.44-1.29.79-2.4,1.01-1.4.28-2.41,1.51-2.41,2.94v2.04c0,1.66,1.34,3,3,3h28.75c1.66,0,3-1.34,3-3v-2.04c0-1.37-.93-2.57-2.26-2.91-1.61-.41-1.97-.88-1.99-.91,0,0,0-.02,0-.06,0-.13.04-.88.92-2.72l5.03-10.51h35.74l5.15,10.54c.94,1.93.97,2.6.97,2.63,0,.28,0,.7-1.71.99-1.45.24-2.51,1.49-2.51,2.96v2.04c0,1.66,1.34,3,3,3h31.99c1.66,0,3-1.34,3-3v-2.04c0-1.44-1.02-2.68-2.44-2.95-1.2-.23-2.09-.64-2.73-1.26-.46-.45-1.47-1.7-3.1-5.01l-33.11-66.98c-.75-1.45-.9-2.36-.9-2.87,0-.07,0-.09,0-.1,0,0,.26-.4,1.58-.78,1.28-.37,2.17-1.55,2.17-2.88v-2.04c0-1.66-1.34-3-3-3h0ZM808.29,586.69l9.6-20.77,9.45,20.77h-19.06Z"/>
      </g>
      <g>
        <path class="cls-6" d="M879.88,625.25c-.83,0-1.5-.67-1.5-1.5v-2.04c0-.67.45-1.27,1.1-1.45,1.62-.45,2.23-.94,2.46-1.2.43-.49.52-1.36.52-2v-73.6c0-.89-.18-1.55-.52-1.94-.22-.25-.84-.75-2.46-1.2-.65-.18-1.1-.77-1.1-1.45v-2.04c0-.83.67-1.5,1.5-1.5h27.12c.83,0,1.5.67,1.5,1.5v2.04c0,.69-.47,1.29-1.14,1.46-1.59.4-2.19.88-2.4,1.14-.36.42-.54,1.09-.54,1.99v73.6c0,.93.18,1.62.55,2.03.28.32.93.78,2.4,1.16.66.17,1.13.77,1.13,1.45v2.04c0,.83-.67,1.5-1.5,1.5h-27.12Z"/>
        <path d="M907.01,536.84v2.04c-1.53.38-2.59.92-3.18,1.62-.59.7-.89,1.69-.89,2.96v73.6c0,1.32.31,2.32.92,3.02s1.67,1.24,3.15,1.62v2.04h-27.12v-2.04c1.53-.42,2.59-.98,3.18-1.66.59-.68.89-1.68.89-2.99v-73.6c0-1.27-.3-2.25-.89-2.93-.59-.68-1.66-1.23-3.18-1.66v-2.04h27.12M907.01,533.84h-27.12c-1.66,0-3,1.34-3,3v2.04c0,1.35.9,2.53,2.2,2.89,1.37.38,1.73.74,1.73.75h0s.14.23.14.95v73.6c0,.76-.15,1.02-.16,1.03h0s-.37.35-1.72.73c-1.3.36-2.2,1.54-2.2,2.89v2.04c0,1.66,1.34,3,3,3h27.12c1.66,0,3-1.34,3-3v-2.04c0-1.37-.93-2.56-2.25-2.91-1.32-.34-1.64-.7-1.65-.7,0,0-.18-.24-.18-1.04v-73.6c0-.66.13-.96.18-1.02h0s.34-.33,1.62-.66c1.34-.33,2.27-1.53,2.27-2.91v-2.04c0-1.66-1.34-3-3-3h0Z"/>
      </g>
      <g>
        <path class="cls-6" d="M986.2,625.25c-.83,0-1.5-.67-1.5-1.5v-2.04c0-.74.54-1.37,1.27-1.48,1.28-.2,1.98-.57,1.98-.81-.02-.1-.25-1.06-2.73-4.7l-17.15-24.94h-20.91v27.34c0,.89.18,1.56.55,1.97.28.32.93.78,2.4,1.16.66.17,1.13.77,1.13,1.45v2.04c0,.83-.67,1.5-1.5,1.5h-27.12c-.83,0-1.5-.67-1.5-1.5v-2.04c0-.67.45-1.27,1.1-1.45,1.62-.45,2.23-.94,2.46-1.2.34-.39.52-1.05.52-1.94v-73.6c0-.64-.09-1.51-.52-2.01-.22-.25-.84-.75-2.46-1.2-.65-.18-1.1-.77-1.1-1.45v-2.04c0-.83.67-1.5,1.5-1.5h54.37c6.69,0,12.09.39,16.05,1.17,4.06.8,7.66,2.22,10.69,4.23,3.58,2.36,6.29,5.6,8.06,9.63,1.65,3.83,2.48,7.97,2.48,12.32,0,14.24-7.58,22.96-22.54,25.96l15.52,22.07c2.89,4.08,5,6.73,6.29,7.85,1.13.99,2.5,1.53,4.17,1.64.79.05,1.4.71,1.4,1.5v2.04c0,.83-.67,1.5-1.5,1.5h-31.4ZM974.94,572.46c4.24,0,7.25-.12,8.96-.37,1.6-.23,3.08-.71,4.4-1.42,2.73-1.47,4.05-4.12,4.05-8.1s-1.33-6.63-4.05-8.1c-1.38-.76-2.84-1.25-4.36-1.46-1.65-.22-4.68-.34-9-.34h-27.79v19.79h27.79Z"/>
        <path d="M976.98,536.84c6.62,0,11.88.38,15.76,1.15,3.88.76,7.27,2.1,10.16,4.01,3.35,2.21,5.86,5.2,7.51,8.98,1.57,3.65,2.36,7.56,2.36,11.71,0,14.18-7.88,22.48-23.62,24.9l16.87,24c2.97,4.2,5.15,6.91,6.53,8.12,1.38,1.21,3.07,1.88,5.06,2.01v2.04h-31.4v-2.04c2.16-.34,3.24-1.1,3.24-2.29,0-.76-1-2.61-2.99-5.54l-17.6-25.59h-23.2v28.84c0,1.27.31,2.26.92,2.96s1.67,1.24,3.15,1.62v2.04h-27.12v-2.04c1.53-.42,2.59-.98,3.18-1.66.59-.68.89-1.66.89-2.93v-73.6c0-1.32-.3-2.31-.89-2.99-.59-.68-1.66-1.23-3.18-1.66v-2.04h54.37M945.65,573.96h29.29c4.33,0,7.39-.13,9.17-.38,1.78-.25,3.42-.79,4.9-1.59,3.22-1.74,4.84-4.88,4.84-9.42s-1.61-7.68-4.84-9.42c-1.53-.85-3.15-1.39-4.87-1.62-1.72-.23-4.79-.35-9.2-.35h-29.29v22.79M976.98,533.84h-54.37c-1.66,0-3,1.34-3,3v2.04c0,1.35.9,2.53,2.2,2.89,1.35.38,1.72.73,1.73.75h0s.14.26.14,1.01v73.6c0,.73-.15.95-.15.96h0s-.36.36-1.72.74c-1.3.36-2.2,1.54-2.2,2.89v2.04c0,1.66,1.34,3,3,3h27.12c1.66,0,3-1.34,3-3v-2.04c0-1.37-.93-2.56-2.25-2.91-1.32-.34-1.64-.7-1.65-.7,0,0-.18-.21-.18-.98v-25.84h18.62l16.71,24.29c1.01,1.49,1.61,2.48,1.98,3.13-.07.01-.15.03-.23.04-1.46.23-2.53,1.49-2.53,2.96v2.04c0,1.66,1.34,3,3,3h31.4c1.66,0,3-1.34,3-3v-2.04c0-1.58-1.23-2.89-2.81-2.99-1.33-.09-2.4-.5-3.28-1.27-.82-.72-2.54-2.62-6.05-7.6l-14.23-20.24c14.11-3.57,21.53-12.81,21.53-26.93,0-4.55-.88-8.89-2.6-12.9-1.89-4.32-4.79-7.78-8.62-10.3-3.19-2.11-6.97-3.61-11.23-4.45-4.06-.8-9.55-1.2-16.34-1.2h0ZM948.65,554.17h26.29c5.29,0,7.71.18,8.8.32,1.35.18,2.6.6,3.82,1.27,1.43.77,3.29,2.3,3.29,6.8s-1.86,6.03-3.26,6.78c-1.17.64-2.48,1.06-3.9,1.26-1.63.23-4.57.35-8.74.35h-26.29v-16.79h0Z"/>
      </g>
      <g>
        <path class="cls-6" d="M1111.58,629.33c-.67,0-1.26-.45-1.45-1.1-.45-1.62-.94-2.23-1.2-2.46-.4-.35-1.05-.52-1.94-.52h-78.95c-.83,0-1.5-.67-1.5-1.5v-2.04c0-.67.45-1.27,1.1-1.45,1.62-.45,2.23-.94,2.46-1.2.43-.49.52-1.36.52-2v-73.54c0-.64-.09-1.51-.52-2.01-.22-.25-.84-.75-2.46-1.2-.65-.18-1.1-.77-1.1-1.45v-2.04c0-.83.67-1.5,1.5-1.5h77.42c.89,0,1.54-.18,1.93-.53.31-.28.78-.94,1.21-2.45.18-.65.77-1.09,1.44-1.09h2.04c.83,0,1.5.67,1.5,1.5v22.48c0,.83-.67,1.5-1.5,1.5h-2.04c-.67,0-1.26-.45-1.44-1.09-.45-1.6-.95-2.23-1.21-2.46-.39-.35-1.04-.53-1.93-.53h-52.87v17.63h33.77c.89,0,1.55-.17,1.94-.52.25-.22.75-.84,1.2-2.46.18-.65.77-1.1,1.45-1.1h2.04c.83,0,1.5.67,1.5,1.5v21.97c0,.83-.67,1.5-1.5,1.5h-2.04c-.67,0-1.26-.44-1.44-1.09-.43-1.5-.9-2.16-1.22-2.45-.39-.35-1.04-.54-1.92-.54h-33.77v20.81h54.4c.89,0,1.55-.17,1.94-.52.25-.22.75-.84,1.2-2.46.18-.65.77-1.1,1.45-1.1h2.04c.83,0,1.5.67,1.5,1.5v22.48c0,.83-.67,1.5-1.5,1.5h-2.04Z"/>
        <path d="M1112.09,532.77v22.48h-2.04c-.42-1.51-.98-2.57-1.66-3.17-.68-.6-1.66-.91-2.93-.91h-54.37v20.63h35.27c1.27,0,2.25-.3,2.93-.89.68-.59,1.23-1.66,1.66-3.18h2.04v21.97h-2.04c-.42-1.49-.98-2.54-1.66-3.15-.68-.62-1.66-.92-2.93-.92h-35.27v23.81h55.9c1.27,0,2.25-.3,2.93-.89.68-.59,1.23-1.66,1.66-3.18h2.04v22.48h-2.04c-.42-1.53-.98-2.59-1.66-3.18-.68-.59-1.66-.89-2.93-.89h-78.95v-2.04c1.53-.42,2.59-.98,3.18-1.66.59-.68.89-1.68.89-2.99v-73.54c0-1.32-.3-2.31-.89-2.99-.59-.68-1.66-1.23-3.18-1.66v-2.04h77.42c1.27,0,2.25-.3,2.93-.91.68-.61,1.23-1.66,1.66-3.17h2.04M1112.09,529.77h-2.04c-1.34,0-2.52.89-2.89,2.19-.39,1.39-.76,1.74-.77,1.75-.05.03-.33.15-.93.15h-77.42c-1.66,0-3,1.34-3,3v2.04c0,1.35.9,2.53,2.2,2.89,1.35.38,1.72.73,1.73.75h0s.14.26.14,1.01v73.54c0,.76-.15,1.02-.16,1.03h0s-.37.35-1.72.73c-1.3.36-2.2,1.54-2.2,2.89v2.04c0,1.66,1.34,3,3,3h78.95c.73,0,.95.15.96.15h0s.36.36.74,1.73c.36,1.3,1.54,2.2,2.89,2.2h2.04c1.66,0,3-1.34,3-3v-22.48c0-1.66-1.34-3-3-3h-2.04c-1.35,0-2.53.9-2.89,2.2-.38,1.37-.74,1.73-.74,1.73h0s-.23.15-.95.15h-52.9v-17.81h32.27c.59,0,.87.11.92.15.01.01.39.36.78,1.75.37,1.29,1.54,2.18,2.88,2.18h2.04c1.66,0,3-1.34,3-3v-21.97c0-1.66-1.34-3-3-3h-2.04c-1.35,0-2.53.9-2.89,2.2-.38,1.37-.74,1.73-.74,1.73h0s-.23.15-.95.15h-32.27v-14.63h51.37c.6,0,.89.11.94.15h0s.37.35.76,1.74c.36,1.29,1.54,2.19,2.89,2.19h2.04c1.66,0,3-1.34,3-3v-22.48c0-1.66-1.34-3-3-3h0Z"/>
      </g>
    </g>
  </g>
</svg>